<svg width="37" height="36" viewBox="0 0 37 36" fill="none" xmlns="http://www.w3.org/2000/svg">
<path d="M14.242 20.0305H16.2591C16.5266 20.0305 16.7831 19.9242 16.9723 19.7351C17.1614 19.5459 17.2677 19.2894 17.2677 19.0219V9.44046C17.2677 9.17297 17.1614 8.91643 16.9723 8.72729C16.7831 8.53815 16.5266 8.43188 16.2591 8.43188H6.17337C5.90588 8.43188 5.64934 8.53815 5.4602 8.72729C5.27106 8.91643 5.16479 9.17297 5.16479 9.44046V19.0219C5.16479 19.2894 5.27106 19.5459 5.4602 19.7351C5.64934 19.9242 5.90588 20.0305 6.17337 20.0305H10.712L14.242 23.0562V20.0305Z" fill="#D9ECFF"/>
<path d="M10.2082 16.5004C11.8793 16.5004 13.2339 15.1458 13.2339 13.4747C13.2339 11.8036 11.8793 10.449 10.2082 10.449C8.53716 10.449 7.1825 11.8036 7.1825 13.4747C7.1825 15.1458 8.53716 16.5004 10.2082 16.5004Z" fill="#3D6BED"/>
<path d="M31.3877 30.1162V25.0734H20.7112C20.259 25.0734 19.8112 25.1624 19.3934 25.3355C18.9756 25.5085 18.596 25.7622 18.2763 26.0819C17.9565 25.7622 17.5769 25.5085 17.1591 25.3355C16.7413 25.1624 16.2936 25.0734 15.8414 25.0734H5.16479V30.1162H15.2505L16.5545 31.4202C16.7806 31.6463 17.0491 31.8257 17.3445 31.948C17.6399 32.0704 17.9565 32.1334 18.2763 32.1334C18.922 32.1334 19.5414 31.8769 19.998 31.4202L21.302 30.1162H31.3877Z" fill="#FFE28F"/>
<path d="M9.70166 26.5863H10.7102V27.5949H9.70166V26.5863Z" fill="#FFD873"/>
<path d="M18.7795 27.6312V26.5862C18.7795 26.4525 18.7264 26.3242 18.6318 26.2296C18.5372 26.135 18.409 26.0819 18.2752 26.0819C18.1415 26.0819 18.0132 26.135 17.9186 26.2296C17.8241 26.3242 17.7709 26.4525 17.7709 26.5862V27.6312C17.011 26.9552 16.0285 26.5831 15.0114 26.5862H11.7195V27.5948H15.0114C15.5763 27.5928 16.1312 27.7439 16.6171 28.0321C17.103 28.3203 17.5017 28.7347 17.7709 29.2313V32.1334H18.7795V29.2312C19.0487 28.7346 19.4475 28.3202 19.9334 28.032C20.4193 27.7439 20.9741 27.5928 21.5391 27.5948H26.3438V26.5862H21.5391C20.522 26.5831 19.5394 26.9552 18.7795 27.6312Z" fill="#FFD873"/>
<path d="M27.3516 26.5863H31.3859V27.5949H27.3516V26.5863Z" fill="#FFD873"/>
<path d="M22.8116 25.0734L24.7888 23.5905C26.1136 22.597 27.0255 21.15 27.3502 19.5262L28.4487 21.357C28.7198 21.8089 28.8631 22.3261 28.8631 22.8532C28.8631 23.442 28.6292 24.0067 28.2128 24.4231C27.7964 24.8395 27.2317 25.0734 26.6429 25.0734H22.8116Z" fill="#FFD873"/>
<path d="M21.3014 29.1077H32.9V31.1248H21.8057L20.8583 32.0722C20.5192 32.4114 20.1165 32.6804 19.6734 32.8639C19.2303 33.0475 18.7553 33.142 18.2757 33.142C17.7961 33.142 17.3211 33.0475 16.878 32.8639C16.4349 32.6804 16.0322 32.4114 15.6931 32.0722L14.7457 31.1248H3.65137V29.1077H15.25L16.554 30.4116C16.7801 30.6378 17.0485 30.8171 17.3439 30.9395C17.6393 31.0618 17.9559 31.1248 18.2757 31.1248C18.9215 31.1248 19.5408 30.8683 19.9974 30.4116L21.3014 29.1077Z" fill="#FFA100"/>
<path d="M22.4542 14.6274H20.437C20.1696 14.6274 19.913 14.5211 19.7239 14.332C19.5347 14.1429 19.4285 13.8863 19.4285 13.6188V4.54166C19.4285 4.27417 19.5347 4.01763 19.7239 3.82849C19.913 3.63934 20.1696 3.53308 20.437 3.53308H30.5228C30.7903 3.53308 31.0468 3.63934 31.236 3.82849C31.4251 4.01763 31.5314 4.27417 31.5314 4.54166V13.6188C31.5314 13.8863 31.4251 14.1429 31.236 14.332C31.0468 14.5211 30.7903 14.6274 30.5228 14.6274H25.9842L22.4542 17.6531V14.6274Z" fill="#D9ECFF"/>
<path d="M24.328 12.4662L24.8323 12.9705H25.8409L26.3452 12.4662H24.328Z" fill="#718799"/>
<path d="M24.328 9.9447H26.3452V12.4661H24.328V9.9447Z" fill="#718799"/>
<path d="M24.8293 5.40613H25.8379V6.4147H24.8293V5.40613Z" fill="#FFC431"/>
<path d="M22.4799 6.79797L23.1929 6.08491L23.906 6.79797L23.1929 7.51104L22.4799 6.79797Z" fill="#FFC431"/>
<path d="M21.8054 8.43188H22.814V9.44046H21.8054V8.43188Z" fill="#FFC431"/>
<path d="M27.856 8.43188H28.8645V9.44046H27.856V8.43188Z" fill="#FFC431"/>
<path d="M26.7579 6.7998L27.471 6.08674L28.1841 6.7998L27.471 7.51287L26.7579 6.7998Z" fill="#FFC431"/>
<path d="M10.7104 12.4662H15.249V17.5091H10.7104V12.4662Z" fill="#FFC431"/>
<path d="M7.68689 17.509L10.7126 13.979L13.7383 17.509H7.68689Z" fill="#EF5E3B"/>
<path d="M25.3363 10.4491C26.1719 10.4491 26.8492 9.77173 26.8492 8.9362C26.8492 8.10067 26.1719 7.42334 25.3363 7.42334C24.5008 7.42334 23.8235 8.10067 23.8235 8.9362C23.8235 9.77173 24.5008 10.4491 25.3363 10.4491Z" fill="#FFC431"/>
</svg>
