<svg width="37" height="36" viewBox="0 0 37 36" fill="none" xmlns="http://www.w3.org/2000/svg">
<rect x="3.19995" y="18.45" width="11.1375" height="14.85" rx="1" fill="#ECEEF1"/>
<path d="M5.98438 25.8749H11.5531" stroke="#1D356D" stroke-width="1.2" stroke-linecap="round"/>
<path d="M5.98438 24.0187H11.5531" stroke="#1D356D" stroke-width="1.2" stroke-linecap="round"/>
<path d="M5.98438 27.7312H8.76875" stroke="#1D356D" stroke-width="1.2" stroke-linecap="round"/>
<path d="M24.8326 16.079C25.4086 16.079 25.9686 16.1493 26.5047 16.2807V7.6731C26.5047 7.48904 26.3555 7.33984 26.1714 7.33984H13.8726V10.149C13.8726 10.5647 13.5344 10.9028 13.1188 10.9028H7.47339V21.3142C7.47339 21.4983 7.62258 21.6475 7.80665 21.6475H17.9624C18.6335 18.4707 21.4588 16.079 24.8326 16.079Z" fill="#C4E2FF"/>
<path d="M24.8323 16.079C24.8342 16.079 24.8362 16.0791 24.8382 16.0791V9.20608C24.8382 9.09565 24.7486 9.0061 24.6382 9.0061H13.8723V10.149C13.8723 10.5647 13.5341 10.9028 13.1185 10.9028H9.1394V19.7813C9.1394 19.8917 9.22895 19.9812 9.33932 19.9812H18.5428C19.6935 17.6705 22.0803 16.079 24.8323 16.079Z" fill="#0096F6"/>
<path d="M22.3917 16.5169L20.3741 13.7963C20.2409 13.6166 19.972 13.6166 19.8388 13.7963L17.5493 16.8836L14.2794 12.4741C14.1462 12.2944 13.8773 12.2944 13.744 12.4741L9.13989 18.6829V19.7814C9.13989 19.8918 9.22943 19.9813 9.33981 19.9813H18.5433C19.3353 18.391 20.7126 17.1415 22.3917 16.5169Z" fill="#46CC8D"/>
<path d="M12.1076 19.9813C11.9972 19.9813 11.9077 19.8918 11.9077 19.7813V14.9563L9.14429 18.6828V19.7813C9.14429 19.8504 9.17922 19.9112 9.23247 19.9471C9.26437 19.9687 9.30286 19.9813 9.34427 19.9813H12.1076Z" fill="#46CC8D"/>
<path d="M24.3573 16.0957C24.5157 16.085 24.6755 16.079 24.8366 16.079C25.0017 16.079 25.1654 16.0852 25.3278 16.0965V9.20621C25.3278 8.82838 25.0204 8.521 24.6425 8.521H13.8767V9.49146H24.3573V16.0957Z" fill="#C4E2FF"/>
<path d="M18.8125 19.4961H9.62843V10.903H8.65796V19.7815C8.65796 20.1593 8.96534 20.4666 9.34317 20.4666H18.3276C18.4646 20.1294 18.6269 19.805 18.8125 19.4961Z" fill="#C4E2FF"/>
<path d="M22.0095 12.7797C22.5617 12.7797 23.0093 12.3321 23.0093 11.7799C23.0093 11.2278 22.5617 10.7802 22.0095 10.7802C21.4574 10.7802 21.0098 11.2278 21.0098 11.7799C21.0098 12.3321 21.4574 12.7797 22.0095 12.7797Z" fill="#FFA100"/>
<path d="M34.5183 6.94984V10.8156C34.5183 10.9997 34.3691 11.1488 34.185 11.1488H28.5381C28.354 11.1488 28.2048 10.9997 28.2048 10.8156V6.94984C28.2048 6.76577 28.354 6.61658 28.5381 6.61658H34.185C34.3691 6.61658 34.5183 6.76577 34.5183 6.94984Z" fill="#FED2A4"/>
<path d="M30.2893 10.8155V6.94984C30.2893 6.76577 30.4385 6.61658 30.6226 6.61658H28.5381C28.354 6.61658 28.2048 6.76577 28.2048 6.94984V10.8155C28.2048 10.9996 28.354 11.1488 28.5381 11.1488H30.6226C30.4385 11.1488 30.2893 10.9996 30.2893 10.8155Z" fill="#FED2A4"/>
<path d="M32.7097 8.93565C32.6327 8.80237 32.4404 8.80237 32.3634 8.93565L31.3542 10.6836L30.1104 8.52928C30.0334 8.396 29.841 8.396 29.7641 8.52928L28.3062 11.0544C28.3662 11.1127 28.4478 11.149 28.5381 11.149H33.9876L32.7097 8.93565Z" fill="#0096F6"/>
<path d="M34.1839 11.6341H28.5369C28.0856 11.6341 27.7185 11.2669 27.7185 10.8156V6.94996C27.7185 6.49863 28.0857 6.13147 28.5369 6.13147H34.1839C34.6352 6.13147 35.0023 6.49869 35.0023 6.94996V10.8156C35.0024 11.2669 34.6352 11.6341 34.1839 11.6341ZM28.689 10.6637H34.0319V7.10187H28.689V10.6637Z" fill="#C4E2FF"/>
<path d="M13.4508 4.41846V10.1491C13.4508 10.3331 13.3016 10.4823 13.1176 10.4823H4.87281C4.68874 10.4823 4.53955 10.3331 4.53955 10.1491V4.41846C4.53955 4.2344 4.68874 4.08521 4.87281 4.08521H13.1176C13.3016 4.08521 13.4508 4.23446 13.4508 4.41846Z" fill="#FFC431"/>
<path d="M6.6256 10.1491V4.41846C6.6256 4.2344 6.77479 4.08521 6.95886 4.08521H4.87281C4.68874 4.08521 4.53955 4.2344 4.53955 4.41846V10.1491C4.53955 10.3331 4.68874 10.4823 4.87281 10.4823H6.95886C6.77479 10.4824 6.6256 10.3331 6.6256 10.1491Z" fill="#FFC431"/>
<path d="M10.2438 7.28317C10.7039 7.28317 11.0769 6.91017 11.0769 6.45006C11.0769 5.98994 10.7039 5.61694 10.2438 5.61694C9.78364 5.61694 9.41064 5.98994 9.41064 6.45006C9.41064 6.91017 9.78364 7.28317 10.2438 7.28317Z" fill="#FFA100"/>
<path d="M11.5068 8.61621C9.74623 8.61621 8.23722 9.38657 7.59937 10.4824H13.1198C13.3039 10.4824 13.4531 10.3332 13.4531 10.1492V8.95613C12.8703 8.7394 12.2088 8.61621 11.5068 8.61621Z" fill="#D88A55"/>
<path d="M5.43955 7.72742C5.13087 7.72742 4.83003 7.75323 4.53979 7.80137V10.1491C4.53979 10.3331 4.68899 10.4823 4.87305 10.4823H9.67071C9.31287 8.91656 7.55536 7.72742 5.43955 7.72742Z" fill="#D88A55"/>
<path d="M4.87305 10.4823H6.9591C6.77504 10.4823 6.62584 10.3331 6.62584 10.1491V7.85701C6.24898 7.77296 5.85122 7.72742 5.43955 7.72742C5.13087 7.72742 4.83003 7.75323 4.53979 7.80137V10.1491C4.53979 10.3331 4.68899 10.4823 4.87305 10.4823Z" fill="#D88A55"/>
<path d="M13.1201 10.9676H4.87538C4.42404 10.9676 4.05688 10.6004 4.05688 10.1491V4.41847C4.05688 3.96714 4.42411 3.59998 4.87538 3.59998H13.1201C13.5715 3.59998 13.9386 3.9672 13.9386 4.41847V10.1491C13.9386 10.6004 13.5715 10.9676 13.1201 10.9676ZM5.02735 9.99716H12.9682V4.57044H5.02735V9.99716Z" fill="#96C8EF"/>
<path d="M28.1402 26.4504L29.1768 25.4138L28.0834 24.3205L27.0469 25.357L28.1402 26.4504Z" fill="#E6E9ED"/>
<path d="M27.456 16.2439C24.9973 13.7852 21.0026 13.7852 18.5439 16.2439C16.0853 18.7026 16.0853 22.6972 18.5439 25.1559C21.0026 27.6146 24.9973 27.6146 27.456 25.1559C29.9146 22.6972 29.9146 18.7026 27.456 16.2439Z" fill="#3D6BED"/>
<path d="M32.6507 27.6394L30.6827 25.6714C30.0502 25.0389 29.031 25.0389 28.3985 25.6714C27.7659 26.304 27.7659 27.3231 28.3985 27.9557L30.3664 29.9236C30.999 30.5562 32.0181 30.5562 32.6507 29.9236C33.2781 29.291 33.2781 28.2669 32.6507 27.6394Z" fill="#1D356D"/>
<path d="M26.1826 23.8826C24.4262 25.6391 21.5687 25.6391 19.8174 23.8826C18.0609 22.1261 18.0609 19.2687 19.8174 17.5173C21.5738 15.7608 24.4313 15.7608 26.1826 17.5173C27.9391 19.2687 27.9391 22.1261 26.1826 23.8826Z" fill="white"/>
</svg>
