<svg width="37" height="36" viewBox="0 0 37 36" fill="none" xmlns="http://www.w3.org/2000/svg">
<path d="M8.57038 23.0311C7.19442 23.4806 6.10954 24.2265 5.50742 25.4311C4.74285 26.9606 5.1319 28.3796 5.68468 29.3625C6.23745 30.3455 6.97509 30.9578 6.97509 30.9578C7.46904 31.369 8.08589 30.6281 7.59194 30.2169C7.59194 30.2169 6.98266 29.7051 6.52486 28.891C6.06707 28.077 5.78623 27.0186 6.36533 25.86C6.82982 24.9308 7.69043 24.3269 8.86817 23.9422C10.0619 23.5522 11.5826 23.396 13.257 23.375C13.9514 23.4253 13.9395 22.3521 13.2464 22.4178C11.5214 22.4395 9.91841 22.5908 8.57038 23.0311Z" fill="#1D356D" stroke="#1D356D"/>
<path d="M27.087 17.3095C26.5472 17.3493 26.4754 18.1127 26.9983 18.2525C28.151 18.6006 29.0686 19.0233 29.5331 19.4649C29.7653 19.6857 29.8842 19.8899 29.9247 20.1099C29.9652 20.3298 29.9334 20.5924 29.76 20.9396C29.3252 21.8093 28.3642 22.3278 26.931 22.6022C25.4977 22.8767 23.6489 22.8825 21.6488 22.7937C21.0081 22.7651 20.9656 23.7258 21.6062 23.7544C23.6332 23.8444 25.5343 23.8473 27.1118 23.5452C28.6892 23.2431 30.0011 22.6095 30.6214 21.3685C30.864 20.8833 30.9533 20.3946 30.8696 19.9399C30.7859 19.4852 30.5347 19.0886 30.196 18.7665C29.5186 18.1224 28.4931 17.6976 27.2784 17.3308C27.2167 17.3108 27.1516 17.3036 27.087 17.3095Z" fill="#1D356D" stroke="#1D356D"/>
<path d="M5.48663 4.56153C5.48663 4.56153 10.905 4.57073 15.0655 5.34498C17.4641 5.79138 18.8958 6.39084 19.394 7.03242C19.6432 7.35321 19.6475 7.66833 19.4295 8.07111C19.1708 8.54912 18.5651 9.17528 17.352 9.9677C15.9304 10.8964 15.045 11.6762 14.5727 12.4315C14.3311 12.8179 14.2017 13.1952 14.204 13.5765C14.2063 13.9579 14.3474 14.3072 14.5758 14.5971C15.0328 15.1768 15.7828 15.5555 16.6927 15.8808C17.6025 16.2061 18.6907 16.4689 19.8584 16.7139C20.4988 16.8682 20.705 15.8924 20.057 15.7745C18.9078 15.5334 17.8498 15.2752 17.0153 14.9768C16.1808 14.6784 15.581 14.3212 15.3349 14.009C15.2218 13.8656 15.1657 13.7256 15.1647 13.5695C15.1638 13.4133 15.2171 13.2097 15.3845 12.942C15.7193 12.4066 16.5125 11.6636 17.8767 10.7724C19.1126 9.96507 19.8779 9.24719 20.2732 8.52488C20.7102 7.72641 20.59 7.00705 20.1527 6.44394C19.278 5.31773 17.0852 4.74135 15.2427 4.39846C10.9374 3.59723 5.48663 3.60083 5.48663 3.60083C4.83687 3.60471 4.84262 4.56153 5.48663 4.56153Z" fill="#1D356D" stroke="#1D356D"/>
<path d="M10.8661 24.7396L9.59278 26.0129C9.53312 26.0725 9.49142 26.1477 9.47244 26.2299L8.1759 31.848C8.10124 32.1718 8.39143 32.462 8.71525 32.3873L14.3327 31.0909C14.4149 31.0719 14.4901 31.0302 14.5497 30.9705L15.7114 29.8088L10.8661 24.7396Z" fill="#FED2A4"/>
<path d="M24.7972 10.8064L10.0232 25.5808C10.0199 25.5839 10.0167 25.5871 10.0135 25.5904C9.77162 25.8474 9.90643 26.2701 10.2525 26.3397L12.0515 26.6998V28.0595C12.0515 28.3079 12.2528 28.5092 12.5012 28.5093H13.8619L14.2211 30.3082C14.2915 30.6604 14.726 30.7922 14.9801 30.5383L29.755 15.7639C29.9305 15.5883 29.9305 15.3036 29.755 15.128L25.4332 10.8063C25.3473 10.7205 25.2305 10.673 25.109 10.6746C24.9919 10.6763 24.88 10.7235 24.7972 10.8064Z" fill="#3D6BED"/>
<path d="M8.85742 28.8949L8.1759 31.848C8.10124 32.1719 8.39143 32.462 8.71525 32.3874C9.69152 32.162 10.6678 31.9368 11.6441 31.7114L8.85742 28.8949Z" fill="#1D356D"/>
<path d="M29.7906 6.76416C29.2055 6.76416 28.6205 6.9864 28.176 7.43085L24.8003 10.8065L29.7581 15.7641L33.1338 12.3884C34.0227 11.4995 34.0227 10.0484 33.1338 9.15951L31.4051 7.43085C30.9606 6.9864 30.3756 6.76416 29.7906 6.76416Z" fill="#ECEEF1"/>
<path d="M26.1397 9.46472C25.2454 10.3586 24.3517 11.2529 23.458 12.1473L28.4152 17.1053C29.3094 16.2111 30.2036 15.3169 31.0978 14.4228L26.1397 9.46472Z" fill="#FFC431"/>
</svg>
