<svg width="20" height="21" viewBox="0 0 20 21" fill="none" xmlns="http://www.w3.org/2000/svg">
<path d="M10.0164 10.3986C10.1011 9.81901 10.4165 9.50603 10.7327 9.2851C11.0419 9.069 11.3511 8.78846 11.3511 8.26912C11.3511 7.55229 10.7918 6.97173 10.1011 6.97173C9.41048 6.97173 8.85112 7.55229 8.85112 8.26912M7.74327 16.0583L9.34736 17.4406C9.72086 17.7625 10.2732 17.7641 10.6486 17.4444L12.2797 16.0551C12.4292 15.9278 12.6172 15.8581 12.8114 15.8581L14.1666 15.8581C15.5473 15.8581 16.6666 14.7074 16.6666 13.2879V6.40344C16.6666 4.98396 15.5473 3.83325 14.1666 3.83325L5.83325 3.83327C4.45254 3.83327 3.33325 4.98398 3.33325 6.40345V13.2879C3.33325 14.7074 4.45254 15.8581 5.83325 15.8581H7.20793C7.40371 15.8581 7.59323 15.929 7.74327 16.0583Z" stroke="#1E2127" stroke-width="1.7" stroke-linecap="round"/>
<path d="M9.20825 12.5834C9.20825 13.0206 9.56269 13.3751 9.99992 13.3751C10.4371 13.3751 10.7916 13.0206 10.7916 12.5834C10.7916 12.1462 10.4371 11.7917 9.99992 11.7917C9.56269 11.7917 9.20825 12.1462 9.20825 12.5834Z" fill="#1E2127" stroke="#1E2127" stroke-width="0.75"/>
</svg>
