<svg width="20" height="21" viewBox="0 0 20 21" fill="none" xmlns="http://www.w3.org/2000/svg">
<path d="M10.909 8.47805C11.1375 8.88815 11.6551 9.03539 12.0652 8.80693C12.4753 8.57847 12.6226 8.06081 12.3941 7.65072L10.909 8.47805ZM9.99992 10.5091L9.72702 11.3141L9.99992 10.5091ZM9.09082 12.5401C8.86236 12.13 8.34471 11.9828 7.93461 12.2112C7.52451 12.4397 7.37726 12.9573 7.60573 13.3674L9.09082 12.5401ZM10.8499 6.05475C10.8499 5.58531 10.4694 5.20475 9.99992 5.20475C9.53048 5.20475 9.14992 5.58531 9.14992 6.05475H10.8499ZM9.14992 14.9444C9.14992 15.4138 9.53048 15.7944 9.99992 15.7944C10.4694 15.7944 10.8499 15.4138 10.8499 14.9444H9.14992ZM9.99992 6.31672C9.34427 6.31672 8.67177 6.46341 8.14539 6.87841C7.58772 7.31808 7.30779 7.96915 7.30779 8.72279H9.00779C9.00779 8.41285 9.10597 8.28588 9.1979 8.21341C9.32111 8.11626 9.56968 8.01672 9.99992 8.01672V6.31672ZM12.3941 7.65072C11.9428 6.84059 11.0772 6.31672 9.99992 6.31672V8.01672C10.4944 8.01672 10.774 8.23565 10.909 8.47805L12.3941 7.65072ZM7.30779 8.72279C7.30779 9.6055 7.67342 10.2282 8.23579 10.6424C8.71548 10.9957 9.33188 11.1801 9.72702 11.3141L10.2728 9.70408C9.76395 9.53157 9.45928 9.43215 9.24391 9.27353C9.15689 9.20944 9.10782 9.14979 9.07609 9.08743C9.04406 9.02448 9.00779 8.9156 9.00779 8.72279H7.30779ZM9.99992 14.7014C10.6556 14.7014 11.3281 14.5548 11.8545 14.1398C12.4121 13.7001 12.6921 13.049 12.6921 12.2954H10.9921C10.9921 12.6053 10.8939 12.7323 10.8019 12.8048C10.6787 12.9019 10.4302 13.0014 9.99992 13.0014V14.7014ZM7.60573 13.3674C8.05704 14.1776 8.92268 14.7014 9.99992 14.7014V13.0014C9.50542 13.0014 9.22587 12.7825 9.09082 12.5401L7.60573 13.3674ZM12.6921 12.2954C12.6921 11.4127 12.3264 10.79 11.7641 10.3758C11.2844 10.0225 10.668 9.83803 10.2728 9.70408L9.72702 11.3141C10.2359 11.4866 10.5406 11.586 10.7559 11.7446C10.8429 11.8087 10.892 11.8684 10.9238 11.9307C10.9558 11.9937 10.9921 12.1026 10.9921 12.2954H12.6921ZM10.8499 7.16672V6.05475H9.14992V7.16672H10.8499ZM9.14992 13.8514V14.9444H10.8499V13.8514H9.14992ZM15.8166 10.4999C15.8166 13.7124 13.2124 16.3166 9.99992 16.3166V18.0166C14.1513 18.0166 17.5166 14.6513 17.5166 10.4999H15.8166ZM9.99992 16.3166C6.78746 16.3166 4.18325 13.7124 4.18325 10.4999H2.48325C2.48325 14.6513 5.84858 18.0166 9.99992 18.0166V16.3166ZM4.18325 10.4999C4.18325 7.28746 6.78746 4.68325 9.99992 4.68325V2.98325C5.84858 2.98325 2.48325 6.34858 2.48325 10.4999H4.18325ZM9.99992 4.68325C13.2124 4.68325 15.8166 7.28746 15.8166 10.4999H17.5166C17.5166 6.34858 14.1513 2.98325 9.99992 2.98325V4.68325Z" fill="#1E2127"/>
</svg>
