<svg width="20" height="21" viewBox="0 0 20 21" fill="none" xmlns="http://www.w3.org/2000/svg">
<path d="M6.65784 4.99796L6.08762 4.86637C5.60543 4.7551 5.09992 4.90008 4.75 5.25C4.40008 5.59992 4.2551 6.10543 4.36637 6.58762L4.49796 7.15784C4.64963 7.81508 4.37862 8.49759 3.81738 8.87175L3.12404 9.33397C2.73417 9.59388 2.5 10.0314 2.5 10.5C2.5 10.9686 2.73417 11.4061 3.12404 11.666L3.81738 12.1283C4.37862 12.5024 4.64963 13.1849 4.49796 13.8422L4.36637 14.4124C4.2551 14.8946 4.40008 15.4001 4.75 15.75C5.09992 16.0999 5.60543 16.2449 6.08762 16.1336L6.65784 16.002C7.31508 15.8504 7.99759 16.1214 8.37175 16.6826L8.83397 17.376C9.09388 17.7658 9.53144 18 10 18C10.4686 18 10.9061 17.7658 11.166 17.376L11.6283 16.6826C12.0024 16.1214 12.6849 15.8504 13.3422 16.002L13.9124 16.1336C14.3946 16.2449 14.9001 16.0999 15.25 15.75C15.5999 15.4001 15.7449 14.8946 15.6336 14.4124L15.502 13.8422C15.3504 13.1849 15.6214 12.5024 16.1826 12.1283L16.876 11.666C17.2658 11.4061 17.5 10.9686 17.5 10.5C17.5 10.0314 17.2658 9.59388 16.876 9.33397L16.1826 8.87174C15.6214 8.49759 15.3504 7.81508 15.502 7.15784L15.6336 6.58762C15.7449 6.10543 15.5999 5.59992 15.25 5.25C14.9001 4.90008 14.3946 4.7551 13.9124 4.86637L13.3422 4.99796C12.6849 5.14963 12.0024 4.87862 11.6283 4.31738L11.166 3.62404C10.9061 3.23417 10.4686 3 10 3C9.53144 3 9.09388 3.23417 8.83397 3.62404L8.37175 4.31738C7.99759 4.87862 7.31508 5.14963 6.65784 4.99796Z" stroke="#1E2127" stroke-width="1.7" stroke-linejoin="round"/>
<path d="M12.5 10.5C12.5 11.8807 11.3807 13 10 13C8.61929 13 7.5 11.8807 7.5 10.5C7.5 9.11929 8.61929 8 10 8C11.3807 8 12.5 9.11929 12.5 10.5Z" stroke="#1E2127" stroke-width="1.7" stroke-linejoin="round"/>
</svg>
