<svg width="16" height="17" viewBox="0 0 16 17" fill="none" xmlns="http://www.w3.org/2000/svg">
<path d="M14.5 8.5C14.5 5.0625 11.9722 3 8 3C4.02778 3 1.5 5.0625 1.5 8.5C1.5 9.3912 2.1137 10.9037 2.20967 11.1348C2.21828 11.1555 2.22681 11.1744 2.23454 11.1955C2.30059 11.3757 2.57148 12.3352 1.5 13.7552C2.94444 14.4427 4.47844 13.3125 4.47844 13.3125C5.53975 13.8731 6.80256 14 8 14C11.9722 14 14.5 11.9375 14.5 8.5Z" stroke="#222222" stroke-width="1.5" stroke-linecap="square" stroke-linejoin="round"/>
<path d="M4.41699 8.49996C4.41699 8.82213 4.67816 9.08329 5.00033 9.08329C5.32249 9.08329 5.58366 8.82213 5.58366 8.49996C5.58366 8.17779 5.32249 7.91663 5.00033 7.91663C4.67816 7.91663 4.41699 8.17779 4.41699 8.49996ZM7.41699 8.49996C7.41699 8.82213 7.67816 9.08329 8.00033 9.08329C8.32249 9.08329 8.58366 8.82213 8.58366 8.49996C8.58366 8.17779 8.32249 7.91663 8.00033 7.91663C7.67816 7.91663 7.41699 8.17779 7.41699 8.49996ZM10.417 8.49996C10.417 8.82213 10.6782 9.08329 11.0003 9.08329C11.3225 9.08329 11.5837 8.82213 11.5837 8.49996C11.5837 8.17779 11.3225 7.91663 11.0003 7.91663C10.6782 7.91663 10.417 8.17779 10.417 8.49996Z" fill="#222222" stroke="#222222" stroke-width="0.5" stroke-linecap="square"/>
</svg>
