<svg width="28" height="28" viewBox="0 0 28 28" fill="none" xmlns="http://www.w3.org/2000/svg" style="cursor: pointer;">
<path d="M20.1697 4.76923H11.247C11.1543 4.76921 11.0648 4.72773 10.9955 4.65264L8.87195 2.34957C8.66416 2.12436 8.3958 1.99997 8.11779 2H3.13561C2.83443 2 2.54558 2.14588 2.33261 2.40554C2.11964 2.66521 2 3.01739 2 3.38461V18.6154C2 18.9826 2.11964 19.3348 2.33261 19.5944C2.54558 19.8541 2.83443 20 3.13561 20H20.5483C20.7491 20 20.9416 19.9027 21.0836 19.7296C21.2256 19.5565 21.3053 19.3217 21.3053 19.0769V6.15384C21.3053 5.78662 21.1857 5.43444 20.9727 5.17477C20.7598 4.91511 20.4709 4.76923 20.1697 4.76923Z" fill="#F17049"/>
<path d="M18.6551 6.61536H4.64928C4.3481 6.61536 4.05925 6.76123 3.84628 7.0209C3.63332 7.28057 3.51367 7.63275 3.51367 7.99997V20H19.7907V7.99997C19.7907 7.63275 19.6711 7.28057 19.4581 7.0209C19.2452 6.76123 18.9563 6.61536 18.6551 6.61536Z" fill="#E0E0E0"/>
<path d="M22.9746 11.5208L21.3827 19.3481C21.3451 19.5331 21.2511 19.6984 21.1164 19.8169C20.9816 19.9354 20.814 20 20.6413 20H3.06734C2.83393 20.0009 2.606 19.9224 2.41488 19.7755C2.22376 19.6285 2.07882 19.4202 2 19.1792L3.66748 10.9792C3.72406 10.7016 3.86509 10.4534 4.06737 10.2754C4.26964 10.0975 4.52111 10.0003 4.78041 10H21.8617C22.0319 10.0013 22.1997 10.0442 22.353 10.1256C22.5062 10.2069 22.641 10.3247 22.7476 10.4703C22.8541 10.616 22.9298 10.7858 22.9691 10.9675C23.0084 11.1492 23.0102 11.3382 22.9746 11.5208Z" fill="#FBC644"/>
<path d="M21.2549 22.2307L22.2305 21.2551L21.2014 20.2261L20.2259 21.2017L21.2549 22.2307Z" fill="#D7D7D7"/>
<path d="M21.2438 12.7562C18.9022 10.4146 15.0978 10.4146 12.7562 12.7562C10.4146 15.0978 10.4146 18.9022 12.7562 21.2438C15.0978 23.5854 18.9022 23.5854 21.2438 21.2438C23.5854 18.9022 23.5854 15.0978 21.2438 12.7562Z" fill="#3D6BED"/>
<path d="M25.4993 23.3497L23.6471 21.4975C23.0518 20.9022 22.0926 20.9022 21.4973 21.4975C20.9019 22.0929 20.9019 23.052 21.4973 23.6474L23.3495 25.4995C23.9448 26.0949 24.9039 26.0949 25.4993 25.4995C26.0899 24.9042 26.0899 23.9403 25.4993 23.3497Z" fill="#263463"/>
<path d="M19.829 19.829C18.2677 21.3903 15.7277 21.3903 14.171 19.829C12.6097 18.2677 12.6097 15.7277 14.171 14.171C15.7323 12.6097 18.2723 12.6097 19.829 14.171C21.3903 15.7277 21.3903 18.2677 19.829 19.829Z" fill="white"/>
</svg>
