<svg width="16" height="17" viewBox="0 0 16 17" fill="none" xmlns="http://www.w3.org/2000/svg">
<path d="M8.5 6L7.96967 5.46967C7.82902 5.61032 7.75 5.80109 7.75 6H8.5ZM8.5 8H7.75C7.75 8.41421 8.08579 8.75 8.5 8.75V8ZM10.5 8V8.75C10.6989 8.75 10.8897 8.67098 11.0303 8.53033L10.5 8ZM12.5 2L13.0303 1.46967C12.7374 1.17678 12.2626 1.17678 11.9697 1.46967L12.5 2ZM14.5 4L15.0303 4.53033C15.3232 4.23744 15.3232 3.76256 15.0303 3.46967L14.5 4ZM13.5 14V14.75C13.9142 14.75 14.25 14.4142 14.25 14H13.5ZM2.5 14H1.75C1.75 14.4142 2.08579 14.75 2.5 14.75V14ZM2.5 3V2.25C2.08579 2.25 1.75 2.58579 1.75 3H2.5ZM7.5 3.75C7.91421 3.75 8.25 3.41421 8.25 3C8.25 2.58579 7.91421 2.25 7.5 2.25V3.75ZM14.25 9C14.25 8.58579 13.9142 8.25 13.5 8.25C13.0858 8.25 12.75 8.58579 12.75 9H14.25ZM7.75 6V8H9.25V6H7.75ZM8.5 8.75H10.5V7.25H8.5V8.75ZM9.03033 6.53033L13.0303 2.53033L11.9697 1.46967L7.96967 5.46967L9.03033 6.53033ZM11.9697 2.53033L13.9697 4.53033L15.0303 3.46967L13.0303 1.46967L11.9697 2.53033ZM13.9697 3.46967L9.96967 7.46967L11.0303 8.53033L15.0303 4.53033L13.9697 3.46967ZM13.5 13.25H2.5V14.75H13.5V13.25ZM3.25 14V3H1.75V14H3.25ZM2.5 3.75H7.5V2.25H2.5V3.75ZM12.75 9V14H14.25V9H12.75Z" fill="#222222"/>
</svg>
