<svg width="28" height="28" viewBox="0 0 28 28" fill="none" xmlns="http://www.w3.org/2000/svg" style="cursor: pointer;">
<path d="M2 4C2 2.89543 2.89543 2 4 2H19C20.1046 2 21 2.89543 21 4V24C21 25.1046 20.1046 26 19 26H7.82843C7.29799 26 6.78929 25.7893 6.41421 25.4142L2.58579 21.5858C2.21071 21.2107 2 20.702 2 20.1716V4Z" fill="#E8E9E9"/>
<path d="M25.8046 12.4662C25.717 12.6143 25.424 12.9153 23.4609 14.8526C22.3232 15.9753 20.6244 17.6483 18.0801 20.1598C17.9577 20.2812 18.2343 20.1331 13.9058 22.153C13.3082 22.4328 12.696 21.808 12.9711 21.2183C14.9943 16.8837 14.8424 17.165 14.9676 17.0412C17.5035 14.5053 19.1882 12.8197 20.308 11.6998C22.4845 9.52247 22.5271 9.48122 22.5323 9.48684C23.0962 9.03122 23.9066 9.07622 24.4138 9.58341C25.6841 10.8537 25.6227 10.7876 25.6841 10.864C26.0441 11.3028 26.1102 11.9445 25.8046 12.4662Z" fill="#FBC644"/>
<path d="M25.8042 12.4662C25.7165 12.6143 25.4236 12.9153 23.4604 14.8526L23.4567 14.8494L21.8751 13.2678L20.3076 11.7008C22.484 9.52341 22.5267 9.48122 22.5318 9.48684C23.0957 9.03122 23.9062 9.07622 24.4134 9.58341C24.6464 9.81637 24.8343 10.0043 24.9867 10.1562C25.6654 10.8345 25.6336 10.8017 25.6837 10.864C26.0437 11.3028 26.1098 11.9445 25.8042 12.4662Z" fill="#F17049"/>
<path d="M7 21.9481C7 21.4249 6.57513 21 6.05188 21H2L7 26V21.9481Z" fill="#B7B7B7"/>
<path d="M7 7H16" stroke="#263463" stroke-width="1.5" stroke-linecap="round"/>
<path d="M7 11H16" stroke="#263463" stroke-width="1.5" stroke-linecap="round"/>
<path d="M7 15H13" stroke="#263463" stroke-width="1.5" stroke-linecap="round"/>
</svg>
