<svg width="28" height="28" viewBox="0 0 28 28" fill="none" xmlns="http://www.w3.org/2000/svg" style="cursor: pointer;">
<path d="M14 6L5 13.8824L5 23.2844C5 24.228 5.89996 25 7.00006 25H20.9999C22.1 25 23 24.228 23 23.2844V13.3529L14 6Z" fill="#E8E9E9"/>
<path d="M11 20C11 18.8954 11.8954 18 13 18H15C16.1046 18 17 18.8954 17 20V25H11V20Z" fill="white"/>
<path d="M19 5C19 3.89543 19.8954 3 21 3C22.1046 3 23 3.89543 23 5V10L19 7V5Z" fill="#263463"/>
<path d="M4 13L13.7297 4L24 13" stroke="#3D6BED" stroke-width="4.5" stroke-linecap="round" stroke-linejoin="round"/>
</svg>
