<svg width="31" height="37" viewBox="0 0 31 37" fill="none" xmlns="http://www.w3.org/2000/svg">
<circle opacity="0.1" cx="15" cy="15" r="10" fill="#9214F2"/>
<g filter="url(#filter0_d_223_18809)">
<mask id="path-2-outside-1_223_18809" maskUnits="userSpaceOnUse" x="12" y="14" width="16" height="19" fill="black">
<rect fill="white" x="12" y="14" width="16" height="19"/>
<path fill-rule="evenodd" clip-rule="evenodd" d="M16.8355 25L15.9489 23.6453C15.3435 22.7203 14.054 22.3829 13.0677 22.89L13.2975 22.7718C13.0527 22.8977 12.9353 23.2114 13.0361 23.4721L14.2634 26.6474C14.458 27.1508 14.9549 27.8627 15.3666 28.2203C15.3666 28.2203 17.8355 30.2639 17.8355 31.03V32H21.8355L22.8355 30L23.8355 32H24.8355V31.03C24.8355 30.2639 26.3444 27.8507 26.3444 27.8507C26.6221 27.3816 26.8536 26.5552 26.8536 26.0066V21.9718C26.8355 21.0785 26.0762 20.3545 25.1393 20.3545C24.6705 20.3545 24.2909 20.7165 24.2909 21.1634V21.4866C24.2909 20.5933 23.5315 19.8693 22.5946 19.8693C22.1258 19.8693 21.7462 20.2313 21.7462 20.6782V21.0013C21.7462 20.108 20.9868 19.3841 20.0499 19.3841C19.5812 19.3841 19.2015 19.7461 19.2015 20.193V20.5161C19.2015 20.3726 19.1862 20.2584 19.1565 20.168L18.8977 16.0012C18.8627 15.4378 18.3878 15 17.8355 15C17.2794 15 16.8355 15.4476 16.8355 15.9998V20V25ZM23.8536 24H24.8536V28H23.8536V24ZM21.8536 24H22.8536V28H21.8536V24ZM19.8536 24H20.8536V28H19.8536V24Z"/>
</mask>
<path fill-rule="evenodd" clip-rule="evenodd" d="M16.8355 25L15.9489 23.6453C15.3435 22.7203 14.054 22.3829 13.0677 22.89L13.2975 22.7718C13.0527 22.8977 12.9353 23.2114 13.0361 23.4721L14.2634 26.6474C14.458 27.1508 14.9549 27.8627 15.3666 28.2203C15.3666 28.2203 17.8355 30.2639 17.8355 31.03V32H21.8355L22.8355 30L23.8355 32H24.8355V31.03C24.8355 30.2639 26.3444 27.8507 26.3444 27.8507C26.6221 27.3816 26.8536 26.5552 26.8536 26.0066V21.9718C26.8355 21.0785 26.0762 20.3545 25.1393 20.3545C24.6705 20.3545 24.2909 20.7165 24.2909 21.1634V21.4866C24.2909 20.5933 23.5315 19.8693 22.5946 19.8693C22.1258 19.8693 21.7462 20.2313 21.7462 20.6782V21.0013C21.7462 20.108 20.9868 19.3841 20.0499 19.3841C19.5812 19.3841 19.2015 19.7461 19.2015 20.193V20.5161C19.2015 20.3726 19.1862 20.2584 19.1565 20.168L18.8977 16.0012C18.8627 15.4378 18.3878 15 17.8355 15C17.2794 15 16.8355 15.4476 16.8355 15.9998V20V25ZM23.8536 24H24.8536V28H23.8536V24ZM21.8536 24H22.8536V28H21.8536V24ZM19.8536 24H20.8536V28H19.8536V24Z" fill="white"/>
<path d="M16.8355 25L15.9988 25.5476L17.8355 28.354V25H16.8355ZM15.9489 23.6453L16.7857 23.0977L15.9489 23.6453ZM13.0361 23.4721L12.1034 23.8327L13.0361 23.4721ZM14.2634 26.6474L15.1962 26.2869L14.2634 26.6474ZM15.3666 28.2203L14.7109 28.9753L14.7198 28.9831L14.729 28.9907L15.3666 28.2203ZM17.8355 32H16.8355V33H17.8355V32ZM21.8355 32V33H22.4536L22.73 32.4472L21.8355 32ZM22.8355 30L23.73 29.5528L22.8355 27.7639L21.9411 29.5528L22.8355 30ZM23.8355 32L22.9411 32.4472L23.2175 33H23.8355V32ZM24.8355 32V33H25.8355V32H24.8355ZM26.3444 27.8507L27.1923 28.3808L27.1987 28.3706L27.2049 28.3602L26.3444 27.8507ZM26.8536 21.9718H27.8536V21.9617L27.8534 21.9516L26.8536 21.9718ZM19.1565 20.168L18.1584 20.23L18.1664 20.3578L18.2063 20.4795L19.1565 20.168ZM18.8977 16.0012L17.8997 16.0632V16.0632L18.8977 16.0012ZM16.8355 15.9998H15.8355H16.8355ZM24.8536 24H25.8536V23H24.8536V24ZM24.8536 28V29H25.8536V28H24.8536ZM23.8536 28H22.8536V29H23.8536V28ZM22.8536 24H23.8536V23H22.8536V24ZM22.8536 28V29H23.8536V28H22.8536ZM21.8536 28H20.8536V29H21.8536V28ZM20.8536 24H21.8536V23H20.8536V24ZM20.8536 28V29H21.8536V28H20.8536ZM19.8536 28H18.8536V29H19.8536V28ZM17.6723 24.4524L16.7857 23.0977L15.1122 24.193L15.9988 25.5476L17.6723 24.4524ZM16.7857 23.0977C15.8981 21.7415 14.0489 21.2611 12.6105 22.0006L13.5249 23.7793C14.0592 23.5047 14.789 23.6992 15.1122 24.193L16.7857 23.0977ZM13.5249 23.7793L13.7547 23.6612L12.8403 21.8825L12.6105 22.0006L13.5249 23.7793ZM12.8403 21.8825C12.1311 22.2471 11.8222 23.1052 12.1034 23.8327L13.9689 23.1116C14.0145 23.2295 14.0045 23.3396 13.974 23.4213C13.9436 23.5027 13.8765 23.5986 13.7547 23.6612L12.8403 21.8825ZM12.1034 23.8327L13.3306 27.0079L15.1962 26.2869L13.9689 23.1116L12.1034 23.8327ZM13.3306 27.0079C13.5834 27.6618 14.1747 28.5096 14.7109 28.9753L16.0223 27.4653C15.735 27.2158 15.3326 26.6398 15.1962 26.2869L13.3306 27.0079ZM15.3666 28.2203C14.729 28.9907 14.7289 28.9906 14.7289 28.9906C14.7289 28.9906 14.7288 28.9905 14.7288 28.9905C14.7288 28.9905 14.7288 28.9905 14.7289 28.9906C14.729 28.9907 14.7293 28.9909 14.7297 28.9912C14.7305 28.9919 14.7319 28.993 14.7338 28.9947C14.7377 28.9979 14.7438 29.003 14.752 29.0099C14.7685 29.0237 14.7932 29.0445 14.8251 29.0716C14.8889 29.1259 14.9811 29.205 15.092 29.3025C15.3149 29.4985 15.6089 29.7648 15.9001 30.051C16.1958 30.3416 16.4677 30.6324 16.6587 30.8795C16.7547 31.0037 16.813 31.0948 16.8432 31.1524C16.8837 31.23 16.8355 31.1741 16.8355 31.03H18.8355C18.8355 30.6944 18.7102 30.407 18.6158 30.2262C18.5109 30.0255 18.3763 29.8312 18.2409 29.6561C17.969 29.3045 17.6236 28.9407 17.3021 28.6247C16.976 28.3042 16.6528 28.0118 16.4128 27.8007C16.2922 27.6947 16.1915 27.6081 16.1203 27.5476C16.0847 27.5174 16.0564 27.4935 16.0367 27.477C16.0268 27.4687 16.019 27.4623 16.0136 27.4577C16.0109 27.4555 16.0087 27.4537 16.0071 27.4524C16.0064 27.4517 16.0057 27.4512 16.0052 27.4508C16.005 27.4506 16.0048 27.4504 16.0046 27.4503C16.0045 27.4502 16.0044 27.4501 16.0044 27.4501C16.0043 27.45 16.0042 27.45 15.3666 28.2203ZM16.8355 31.03V32H18.8355V31.03H16.8355ZM17.8355 33H21.8355V31H17.8355V33ZM22.73 32.4472L23.73 30.4472L21.9411 29.5528L20.9411 31.5528L22.73 32.4472ZM21.9411 30.4472L22.9411 32.4472L24.73 31.5528L23.73 29.5528L21.9411 30.4472ZM23.8355 33H24.8355V31H23.8355V33ZM25.8355 32V31.03H23.8355V32H25.8355ZM25.8355 31.03C25.8355 31.0658 25.8465 30.9439 25.9921 30.6C26.1161 30.3073 26.2882 29.9649 26.47 29.6279C26.6502 29.2941 26.8315 28.9809 26.9685 28.7503C27.0367 28.6354 27.0934 28.5418 27.1327 28.4775C27.1524 28.4453 27.1677 28.4206 27.1778 28.4041C27.1829 28.3959 27.1867 28.3897 27.1892 28.3858C27.1904 28.3839 27.1913 28.3825 27.1918 28.3816C27.1921 28.3812 27.1922 28.3809 27.1923 28.3808C27.1924 28.3807 27.1924 28.3807 27.1924 28.3807C27.1924 28.3807 27.1924 28.3807 27.1923 28.3807C27.1923 28.3808 27.1923 28.3808 26.3444 27.8507C25.4965 27.3205 25.4964 27.3206 25.4964 27.3207C25.4964 27.3207 25.4963 27.3208 25.4963 27.3209C25.4962 27.321 25.4961 27.3212 25.4959 27.3214C25.4956 27.3219 25.4953 27.3225 25.4948 27.3232C25.4939 27.3247 25.4926 27.3268 25.4909 27.3294C25.4877 27.3347 25.483 27.3422 25.477 27.3518C25.4651 27.3711 25.448 27.3989 25.4264 27.4342C25.3832 27.5049 25.322 27.6059 25.2488 27.7291C25.1029 27.9749 24.907 28.3129 24.7099 28.6782C24.5145 29.0402 24.3094 29.4448 24.1505 29.82C24.0132 30.1441 23.8355 30.6111 23.8355 31.03H25.8355ZM27.2049 28.3602C27.4027 28.0261 27.5593 27.6131 27.6668 27.2258C27.7741 26.839 27.8536 26.4009 27.8536 26.0066H25.8536C25.8536 26.161 25.8175 26.4103 25.7396 26.6912C25.6618 26.9714 25.5639 27.2061 25.4839 27.3412L27.2049 28.3602ZM27.8536 26.0066V21.9718H25.8536V26.0066H27.8536ZM27.8534 21.9516C27.8237 20.4818 26.5879 19.3545 25.1393 19.3545V21.3545C25.5646 21.3545 25.8474 21.6752 25.8538 21.992L27.8534 21.9516ZM25.1393 19.3545C24.1637 19.3545 23.2909 20.1198 23.2909 21.1634H25.2909C25.2909 21.2317 25.2602 21.2858 25.2293 21.3152C25.1994 21.3437 25.1653 21.3545 25.1393 21.3545V19.3545ZM23.2909 21.1634V21.4866H25.2909V21.1634H23.2909ZM25.2909 21.4866C25.2909 19.9966 24.0383 18.8693 22.5946 18.8693V20.8693C23.0247 20.8693 23.2909 21.19 23.2909 21.4866H25.2909ZM22.5946 18.8693C21.6191 18.8693 20.7462 19.6346 20.7462 20.6782H22.7462C22.7462 20.7465 22.7155 20.8005 22.6847 20.8299C22.6547 20.8585 22.6206 20.8693 22.5946 20.8693V18.8693ZM20.7462 20.6782V21.0013H22.7462V20.6782H20.7462ZM22.7462 21.0013C22.7462 19.5113 21.4936 18.3841 20.0499 18.3841V20.3841C20.4801 20.3841 20.7462 20.7047 20.7462 21.0013H22.7462ZM20.0499 18.3841C19.0744 18.3841 18.2015 19.1494 18.2015 20.193H20.2015C20.2015 20.2613 20.1708 20.3153 20.14 20.3447C20.11 20.3733 20.0759 20.3841 20.0499 20.3841V18.3841ZM18.2015 20.193V20.5161H20.2015V20.193H18.2015ZM20.2015 20.5161C20.2015 20.3088 20.1803 20.0809 20.1068 19.8565L18.2063 20.4795C18.1984 20.4555 18.1976 20.4444 18.1985 20.4516C18.1995 20.4587 18.2015 20.4791 18.2015 20.5161H20.2015ZM20.1546 20.106L19.8958 15.9392L17.8997 16.0632L18.1584 20.23L20.1546 20.106ZM19.8958 15.9392C19.8279 14.845 18.9125 14 17.8355 14V16C17.8444 16 17.8602 16.0035 17.8772 16.0193C17.8933 16.0344 17.8988 16.0498 17.8997 16.0632L19.8958 15.9392ZM17.8355 14C16.7248 14 15.8355 14.8977 15.8355 15.9998H17.8355V16V14ZM15.8355 15.9998V20H17.8355V15.9998H15.8355ZM15.8355 20V25H17.8355V20H15.8355ZM23.8536 25H24.8536V23H23.8536V25ZM23.8536 24V28H25.8536V24H23.8536ZM24.8536 27H23.8536V29H24.8536V27ZM24.8536 28V24H22.8536V28H24.8536ZM21.8536 25H22.8536V23H21.8536V25ZM21.8536 24V28H23.8536V24H21.8536ZM22.8536 27H21.8536V29H22.8536V27ZM22.8536 28V24H20.8536V28H22.8536ZM19.8536 25H20.8536V23H19.8536V25ZM19.8536 24V28H21.8536V24H19.8536ZM20.8536 27H19.8536V29H20.8536V27ZM20.8536 28V24H18.8536V28H20.8536Z" fill="black" fill-opacity="0.8" mask="url(#path-2-outside-1_223_18809)"/>
</g>
<defs>
<filter id="filter0_d_223_18809" x="9.00015" y="12" width="21.8535" height="25" filterUnits="userSpaceOnUse" color-interpolation-filters="sRGB">
<feFlood flood-opacity="0" result="BackgroundImageFix"/>
<feColorMatrix in="SourceAlpha" type="matrix" values="0 0 0 0 0 0 0 0 0 0 0 0 0 0 0 0 0 0 127 0" result="hardAlpha"/>
<feOffset dy="1"/>
<feGaussianBlur stdDeviation="1.5"/>
<feColorMatrix type="matrix" values="0 0 0 0 0 0 0 0 0 0 0 0 0 0 0 0 0 0 0.2 0"/>
<feBlend mode="normal" in2="BackgroundImageFix" result="effect1_dropShadow_223_18809"/>
<feBlend mode="normal" in="SourceGraphic" in2="effect1_dropShadow_223_18809" result="shape"/>
</filter>
</defs>
</svg>
