<svg width="28" height="28" viewBox="0 0 28 28" fill="none" xmlns="http://www.w3.org/2000/svg" style="cursor: pointer;">
<path d="M23.8395 13.9945C23.8395 13.5592 24.0101 13.1362 24.3407 12.8531L25.6688 11.7161C25.8716 11.5425 25.9585 11.2689 25.8931 11.0101C25.747 10.431 25.5575 9.85856 25.3298 9.30798C25.1018 8.75837 24.831 8.21969 24.525 7.70682C24.3881 7.47756 24.1332 7.34561 23.8671 7.36624L22.1368 7.50031C21.6978 7.53433 21.2731 7.35357 20.962 7.04199C20.6514 6.73093 20.4713 6.30689 20.5052 5.86862L20.6398 4.13172C20.6604 3.86554 20.5285 3.61067 20.2992 3.47387C19.7863 3.16774 19.2476 2.89694 18.6974 2.66865C18.1475 2.44125 17.5751 2.2518 16.996 2.1056C16.7372 2.04024 16.4637 2.12717 16.29 2.32997L14.7063 4.17969C14.4697 4.16273 14.2344 4.1543 13.9993 4.1543L11.8906 6.26279L13.9993 8.37142C17.0998 8.37142 19.6223 10.8939 19.6223 13.9944C19.6223 17.095 17.0998 19.6174 13.9993 19.6174L11.8906 21.7261L13.9993 23.8346C14.2294 23.8346 14.4594 23.8266 14.6906 23.8103L16.2777 25.664C16.4513 25.8668 16.7248 25.9537 16.9837 25.8884C17.5627 25.7422 18.1352 25.5527 18.6858 25.325C19.2354 25.097 19.7741 24.8262 20.2869 24.5202L20.6611 24.2968L20.4934 22.132C20.4594 21.693 20.6401 21.2684 20.9517 20.9572C21.2628 20.6466 21.6868 20.4665 22.125 20.5004L23.862 20.635C24.1281 20.6557 24.383 20.5237 24.5198 20.2945C24.8259 19.7815 25.0967 19.2429 25.325 18.6926C25.5524 18.1427 25.7419 17.5703 25.8881 16.9913C25.9534 16.7324 25.8665 16.4589 25.6637 16.2852L24.3515 15.1618C24.0134 14.8723 23.8395 14.4396 23.8395 13.9945Z" fill="#3E6AEF"/>
<path d="M4.15939 13.9945C4.15939 13.5592 3.98879 13.1362 3.65815 12.8531L2.33009 11.7161C2.12729 11.5425 2.04036 11.2689 2.10572 11.0101C2.25192 10.431 2.44137 9.85856 2.66905 9.30798C2.89707 8.75837 3.16786 8.21969 3.47389 7.70682C3.61073 7.47756 3.86562 7.34561 4.13182 7.36624L5.8621 7.50031C6.3011 7.53433 6.72575 7.35357 7.03687 7.04199C7.34747 6.73093 7.5276 6.30689 7.49364 5.86862L7.35905 4.13172C7.33842 3.86554 7.47038 3.61067 7.69964 3.47387C8.21255 3.16774 8.75123 2.89694 9.30149 2.66865C9.85138 2.44125 10.4238 2.2518 11.0028 2.1056C11.2617 2.04024 11.5352 2.12717 11.7089 2.32997L12.8323 3.64215C13.1218 3.98023 13.5545 4.1543 13.9996 4.1543V8.37142C10.8991 8.37142 8.3766 10.8939 8.3766 13.9944C8.3766 17.095 10.8991 19.6174 13.9996 19.6174V23.8346C13.5644 23.8346 13.1413 24.0053 12.8583 24.3359L11.7212 25.664C11.5476 25.8668 11.2741 25.9537 11.0152 25.8884C10.4361 25.7422 9.8637 25.5527 9.31311 25.325C8.76351 25.097 8.22478 24.8262 7.71201 24.5202C7.48275 24.3834 7.35079 24.1285 7.37142 23.8623L7.50549 22.132C7.53951 21.693 7.35873 21.2684 7.04715 20.9572C6.73611 20.6466 6.31209 20.4665 5.87384 20.5004L4.1369 20.635C3.87073 20.6557 3.61585 20.5237 3.47905 20.2945C3.17292 19.7815 2.90213 19.2429 2.67383 18.6926C2.44643 18.1427 2.25698 17.5703 2.11078 16.9913C2.04542 16.7324 2.13235 16.4589 2.33515 16.2852L3.64733 15.1618C3.98541 14.8723 4.15939 14.4395 4.15939 13.9945Z" fill="#3E6AEF"/>
<path d="M13.9995 6.9657L12.5938 8.37145L13.9995 9.7772C16.3249 9.7772 18.2168 11.6691 18.2168 13.9945C18.2168 16.3199 16.3249 18.2117 13.9995 18.2117L12.5938 19.6175L13.9995 21.0232C17.8752 21.0232 21.0283 17.8702 21.0283 13.9945C21.0283 10.1188 17.8752 6.9657 13.9995 6.9657Z" fill="#D7D7D7"/>
<path d="M9.78221 13.9945C9.78221 11.6691 11.6741 9.7772 13.9995 9.7772V6.9657C10.1238 6.9657 6.9707 10.1188 6.9707 13.9945C6.9707 17.8702 10.1238 21.0232 13.9995 21.0232V18.2117C11.6741 18.2117 9.78221 16.3199 9.78221 13.9945Z" fill="#D7D7D7"/>
</svg>
