<svg width="28" height="28" viewBox="0 0 28 28" fill="none" xmlns="http://www.w3.org/2000/svg">
<path d="M22.5 5V5.5C22.5 5.63261 22.4473 5.75978 22.3536 5.85355C22.2598 5.94732 22.1326 6 22 6C21.8674 6 21.7402 5.94732 21.6464 5.85355C21.5527 5.75978 21.5 5.63261 21.5 5.5V5H22.5Z" fill="#0062C3"/>
<path d="M16 5V5.5C16 5.63261 15.9473 5.75978 15.8536 5.85355C15.7598 5.94732 15.6326 6 15.5 6C15.3674 6 15.2402 5.94732 15.1464 5.85355C15.0527 5.75978 15 5.63261 15 5.5V5H16Z" fill="#0062C3"/>
<path d="M9.5 5V5.5C9.5 5.63261 9.44732 5.75978 9.35355 5.85355C9.25978 5.94732 9.13261 6 9 6C8.86739 6 8.74021 5.94732 8.64645 5.85355C8.55268 5.75978 8.5 5.63261 8.5 5.5V5H9.5Z" fill="#0062C3"/>
<path d="M23.5 5H4.5C3.83696 5 3.20107 5.26339 2.73223 5.73223C2.26339 6.20107 2 6.83696 2 7.5L2 23.5C2 23.8283 2.06466 24.1534 2.1903 24.4567C2.31594 24.76 2.50009 25.0356 2.73223 25.2677C2.96438 25.4999 3.23998 25.684 3.54329 25.8097C3.8466 25.9353 4.17169 26 4.5 26H21L26 21V7.5C26 7.17169 25.9353 6.8466 25.8097 6.54329C25.684 6.23998 25.4999 5.96438 25.2677 5.73223C25.0356 5.50009 24.76 5.31594 24.4567 5.1903C24.1534 5.06466 23.8283 5 23.5 5Z" fill="#ECEEF1"/>
<path d="M23.5 5H4.5C3.8372 5.00078 3.20177 5.26442 2.73309 5.73309C2.26442 6.20177 2.00078 6.8372 2 7.5L2 9.99999H26V7.5C25.9992 6.8372 25.7355 6.20177 25.2669 5.73309C24.7982 5.26442 24.1628 5.00078 23.5 5Z" fill="#3D6BED"/>
<path d="M22.5 20.9999C22.1022 20.9999 21.7206 21.1579 21.4393 21.4392C21.158 21.7205 21 22.1021 21 22.4999V25.9999L26 20.9999H22.5Z" fill="#D8DBE1"/>
<path d="M22.5 4V5H21.5V4C21.5 3.73478 21.3946 3.48043 21.2071 3.29289C21.0196 3.10536 20.7652 3 20.5 3C20.2348 3 19.9804 3.10536 19.7929 3.29289C19.6054 3.48043 19.5 3.73478 19.5 4V6.49999C19.5008 6.76497 19.6064 7.01887 19.7938 7.20624C19.9811 7.39361 20.235 7.49921 20.5 7.49999H21C21.1326 7.49999 21.2598 7.55267 21.3535 7.64644C21.4473 7.74021 21.5 7.86738 21.5 7.99999C21.5 8.1326 21.4473 8.25978 21.3535 8.35354C21.2598 8.44731 21.1326 8.49999 21 8.49999H20.5C20.2373 8.50006 19.9772 8.44838 19.7345 8.3479C19.4919 8.24741 19.2714 8.1001 19.0856 7.91437C18.8999 7.72863 18.7526 7.50813 18.6521 7.26544C18.5516 7.02276 18.4999 6.76266 18.5 6.49999V4C18.5 3.46956 18.7107 2.96086 19.0858 2.58579C19.4609 2.21071 19.9696 2 20.5 2C21.0304 2 21.5391 2.21071 21.9142 2.58579C22.2893 2.96086 22.5 3.46956 22.5 4Z" fill="#1D356D" stroke="#1D356D" stroke-width="0.3"/>
<path d="M16 4V5H15V4C15 3.73478 14.8946 3.48043 14.7071 3.29289C14.5196 3.10536 14.2652 3 14 3C13.7348 3 13.4804 3.10536 13.2929 3.29289C13.1054 3.48043 13 3.73478 13 4V6.49999C13.0008 6.76497 13.1064 7.01887 13.2938 7.20624C13.4811 7.39361 13.735 7.49921 14 7.49999H14.5C14.6326 7.49999 14.7598 7.55267 14.8535 7.64644C14.9473 7.74021 15 7.86738 15 7.99999C15 8.1326 14.9473 8.25978 14.8535 8.35354C14.7598 8.44731 14.6326 8.49999 14.5 8.49999H14C13.7373 8.50006 13.4772 8.44838 13.2345 8.3479C12.9919 8.24741 12.7714 8.1001 12.5856 7.91437C12.3999 7.72863 12.2526 7.50813 12.1521 7.26544C12.0516 7.02276 11.9999 6.76266 12 6.49999V4C12 3.46956 12.2107 2.96086 12.5858 2.58579C12.9609 2.21071 13.4696 2 14 2C14.5304 2 15.0391 2.21071 15.4142 2.58579C15.7893 2.96086 16 3.46956 16 4Z" fill="#1D356D" stroke="#1D356D" stroke-width="0.3"/>
<path d="M9.49999 4V5H8.5V4C8.5 3.73478 8.39464 3.48043 8.2071 3.29289C8.01957 3.10536 7.76521 3 7.5 3C7.23478 3 6.98043 3.10536 6.79289 3.29289C6.60536 3.48043 6.5 3.73478 6.5 4V6.49999C6.50078 6.76497 6.60638 7.01887 6.79375 7.20624C6.98112 7.39361 7.23502 7.49921 7.5 7.49999H8C8.1326 7.49999 8.25978 7.55267 8.35355 7.64644C8.44732 7.74021 8.5 7.86738 8.5 7.99999C8.5 8.1326 8.44732 8.25978 8.35355 8.35354C8.25978 8.44731 8.1326 8.49999 8 8.49999H7.5C7.23733 8.50006 6.97723 8.44838 6.73455 8.3479C6.49186 8.24741 6.27136 8.1001 6.08562 7.91437C5.89989 7.72863 5.75258 7.50813 5.65209 7.26544C5.55161 7.02276 5.49993 6.76266 5.5 6.49999V4C5.5 3.46956 5.71071 2.96086 6.08579 2.58579C6.46086 2.21071 6.96956 2 7.5 2C8.03043 2 8.53914 2.21071 8.91421 2.58579C9.28928 2.96086 9.49999 3.46956 9.49999 4Z" fill="#1D356D" stroke="#1D356D" stroke-width="0.3"/>
<path d="M12.5707 21C12.5468 21 12.522 20.999 12.4983 20.9972C12.221 20.9773 11.9668 20.8437 11.803 20.6306L9.18406 17.244C8.87367 16.8422 8.96505 16.2769 9.38878 15.9815C9.8127 15.6862 10.4087 15.7738 10.7202 16.1757L12.683 18.7134L17.3742 14.2648C17.7465 13.9117 18.3485 13.9117 18.7208 14.2648C19.0931 14.6178 19.0931 15.1886 18.7208 15.5417L13.2448 20.7344C13.0648 20.9061 12.8219 21 12.5707 21Z" fill="#3D6BED" stroke="#3D6BED" stroke-width="0.4"/>
</svg>
