<svg width="40" height="41" viewBox="0 0 40 41" fill="none" xmlns="http://www.w3.org/2000/svg">
<rect x="2.68945" y="3.18665" width="24.4424" height="33.6082" rx="2" fill="#3D6BED"/>
<path d="M11.8557 5.22351H28.1875C29.2921 5.22351 30.1875 6.11894 30.1875 7.22351V35.8133C30.1875 36.9179 29.292 37.8133 28.1875 37.8133H7.74512C6.64055 37.8133 5.74512 36.9179 5.74512 35.8133V11.3341L11.8557 5.22351Z" fill="white"/>
<path d="M11.8557 5.22351L5.74512 11.3341H9.85571C10.9603 11.3341 11.8557 10.4387 11.8557 9.3341V5.22351Z" fill="#D8DBE1"/>
<path d="M25.1106 15.1872H16.6846C16.203 15.1872 15.8125 14.7967 15.8125 14.3151C15.8125 13.8335 16.203 13.443 16.6846 13.443H25.1106C25.5922 13.443 25.9827 13.8335 25.9827 14.3151C25.9827 14.7967 25.5922 15.1872 25.1106 15.1872Z" fill="#D8DBE1"/>
<path d="M22.7427 18.1802H16.6846C16.203 18.1802 15.8125 17.7897 15.8125 17.3081C15.8125 16.8265 16.203 16.436 16.6846 16.436H22.7427C23.2243 16.436 23.6148 16.8265 23.6148 17.3081C23.6148 17.7897 23.2243 18.1802 22.7427 18.1802Z" fill="#D8DBE1"/>
<path d="M20.5163 22.6857H16.6846C16.203 22.6857 15.8125 22.2952 15.8125 21.8136C15.8125 21.332 16.203 20.9415 16.6846 20.9415H20.5163C20.998 20.9415 21.3884 21.332 21.3884 21.8136C21.3884 22.2952 20.998 22.6857 20.5163 22.6857Z" fill="#D8DBE1"/>
<path d="M20.7255 25.6812H16.6846C16.203 25.6812 15.8125 25.2907 15.8125 24.8091C15.8125 24.3275 16.203 23.937 16.6846 23.937H20.7255C21.2071 23.937 21.5976 24.3275 21.5976 24.8091C21.5976 25.2907 21.2071 25.6812 20.7255 25.6812Z" fill="#D8DBE1"/>
<path d="M20.5734 30.1867H16.6846C16.203 30.1867 15.8125 29.7962 15.8125 29.3146C15.8125 28.833 16.203 28.4425 16.6846 28.4425H20.5734C21.055 28.4425 21.4455 28.833 21.4455 29.3146C21.4455 29.7962 21.055 30.1867 20.5734 30.1867Z" fill="#D8DBE1"/>
<path d="M23.9489 33.1821H16.6846C16.203 33.1821 15.8125 32.7916 15.8125 32.31C15.8125 31.8283 16.203 31.4379 16.6846 31.4379H23.9489C24.4305 31.4379 24.821 31.8283 24.821 32.31C24.821 32.7916 24.4305 33.1821 23.9489 33.1821Z" fill="#D8DBE1"/>
<path d="M13.7334 13.443H10.7403C10.2586 13.443 9.86816 13.8334 9.86816 14.3151V17.3083C9.86816 17.7899 10.2586 18.1803 10.7403 18.1803H13.7334C14.2151 18.1803 14.6055 17.7899 14.6055 17.3083V14.3151C14.6055 13.8334 14.2151 13.443 13.7334 13.443Z" fill="#FFC431"/>
<path d="M13.7334 20.9415H10.7403C10.2586 20.9415 9.86816 21.332 9.86816 21.8136V24.8089C9.86816 25.2905 10.2586 25.681 10.7403 25.681H13.7334C14.2151 25.681 14.6055 25.2905 14.6055 24.8089V21.8136C14.6055 21.332 14.2151 20.9415 13.7334 20.9415Z" fill="#FFC431"/>
<path d="M13.7334 28.4425H10.7403C10.2586 28.4425 9.86816 28.833 9.86816 29.3146V32.3099C9.86816 32.7915 10.2586 33.182 10.7403 33.182H13.7334C14.2151 33.182 14.6055 32.7915 14.6055 32.3099V29.3146C14.6055 28.833 14.2151 28.4425 13.7334 28.4425Z" fill="#FFC431"/>
<path d="M35.897 28.1336C38.7013 25.3293 38.7013 20.7823 35.897 17.978C33.0927 15.1737 28.5456 15.1737 25.7414 17.978C23.3149 20.4022 22.9888 24.1285 24.7564 26.908L24.5335 28.1844C24.4143 28.8667 25.0083 29.4607 25.6906 29.3415L26.967 29.1186C29.7465 30.8862 33.4728 30.5601 35.897 28.1336Z" fill="#1D356D"/>
<path d="M30.8984 19.5C30.556 19.5039 30.2517 19.7101 30.1217 20.0279C30.1193 20.0333 30.1174 20.0391 30.115 20.0444L28.0477 25.473C27.9052 25.8469 28.0931 26.2657 28.4669 26.4082C28.8408 26.5502 29.2591 26.3628 29.4016 25.9889L29.7387 25.1035H30.8984L31.7713 24.3474L30.8984 23.6545H30.2908L30.8984 22.0595L31.6533 21.2588L30.8984 19.5Z" fill="white"/>
<path d="M33.3275 26.4086C33.2435 26.4405 33.157 26.4555 33.072 26.4555C32.7793 26.4555 32.5035 26.2768 32.3939 25.9865L32.0606 25.1035H30.8984V23.6545H31.5138L30.9052 22.0417L30.8984 22.0595V19.5H30.9066H30.9076C31.2535 19.5 31.5616 19.7067 31.693 20.0265C31.6959 20.0328 31.6983 20.0395 31.7007 20.0463L33.7497 25.475C33.8907 25.8493 33.7019 26.2676 33.3275 26.4086Z" fill="white"/>
</svg>
