<svg width="40" height="41" viewBox="0 0 40 41" fill="none" xmlns="http://www.w3.org/2000/svg">
<path d="M17.5996 33.8452V36.2452C17.5996 36.7226 17.7893 37.1804 18.1268 37.518C18.4644 37.8556 18.9222 38.0452 19.3996 38.0452H20.5996C21.077 38.0452 21.5348 37.8556 21.8724 37.518C22.21 37.1804 22.3996 36.7226 22.3996 36.2452V33.8452H17.5996Z" fill="#0062C3"/>
<path d="M33.3722 16.7446C30.6114 16.4839 23.838 15.979 20 16.8404C16.1616 15.9793 9.38832 16.4839 6.62778 16.7446C6.1815 16.7855 5.76675 16.9922 5.46541 17.3239C5.16406 17.6556 4.99801 18.0882 5.00002 18.5364V35.186C5.00156 35.4355 5.05467 35.682 5.156 35.91C5.25733 36.138 5.40469 36.3426 5.58885 36.5109C5.773 36.6793 5.98996 36.8077 6.22612 36.8882C6.46227 36.9687 6.71252 36.9995 6.96115 36.9787C9.64942 36.7323 16.2884 36.2501 19.8617 37.0962C19.9528 37.1164 20.0472 37.1164 20.1383 37.0962C23.711 36.2501 30.3503 36.7326 33.0392 36.979C33.2878 36.9997 33.538 36.9688 33.7741 36.8882C34.0102 36.8077 34.2271 36.6792 34.4112 36.5108C34.5953 36.3425 34.7426 36.1379 34.844 35.9099C34.9453 35.682 34.9984 35.4355 35 35.186V18.5364C35.002 18.0882 34.8359 17.6556 34.5346 17.3239C34.2333 16.9922 33.8185 16.7855 33.3722 16.7446Z" fill="#3D6BED"/>
<path d="M31.6555 15.4502C27.8033 14.7044 23.8406 14.735 20.0004 15.5408C16.1603 14.7343 12.1978 14.7034 8.34552 15.4499C8.07728 15.507 7.8366 15.655 7.66452 15.8686C7.49244 16.0821 7.39917 16.3484 7.4004 16.6226V33.7021C7.40115 33.8696 7.4368 34.035 7.50508 34.1879C7.57336 34.3409 7.67277 34.4778 7.79696 34.5902C7.92115 34.7025 8.0674 34.7877 8.22636 34.8404C8.38533 34.893 8.55353 34.912 8.72023 34.896C10.5229 34.7082 16.6526 34.158 19.8557 34.9543C19.951 34.9754 20.0498 34.9754 20.1451 34.9543C23.3473 34.1588 29.4779 34.7085 31.2808 34.896C31.4476 34.9121 31.6158 34.8933 31.7748 34.8407C31.9339 34.7881 32.0802 34.7029 32.2044 34.5906C32.3286 34.4782 32.4279 34.3411 32.4961 34.1881C32.5643 34.0351 32.5998 33.8696 32.6004 33.7021V16.6226C32.6016 16.3484 32.5083 16.0821 32.3363 15.8686C32.1642 15.655 31.9238 15.5073 31.6555 15.4502Z" fill="white"/>
<path d="M30.0151 28.3215C27.4194 27.8593 24.7624 27.8593 22.1668 28.3215C22.0107 28.3527 21.8735 28.4447 21.7853 28.5771C21.697 28.7095 21.665 28.8715 21.6962 29.0275C21.7275 29.1836 21.8194 29.3208 21.9518 29.409C22.0842 29.4972 22.2463 29.5293 22.4023 29.498C24.8432 29.0743 27.3389 29.0743 29.7798 29.498C29.8571 29.5135 29.9366 29.5136 30.0139 29.4983C30.0912 29.483 30.1647 29.4526 30.2303 29.4089C30.2958 29.3652 30.3521 29.309 30.3959 29.2436C30.4398 29.1781 30.4703 29.1046 30.4857 29.0274C30.5012 28.9501 30.5013 28.8706 30.486 28.7933C30.4707 28.716 30.4403 28.6425 30.3966 28.577C30.3529 28.5114 30.2967 28.4551 30.2313 28.4113C30.1658 28.3674 30.0923 28.3369 30.0151 28.3215Z" fill="#1D356D"/>
<path d="M30.0143 24.5345C27.4186 24.0722 24.7617 24.0722 22.166 24.5345C22.0104 24.5661 21.8736 24.6582 21.7858 24.7905C21.6979 24.9227 21.666 25.0845 21.6972 25.2402C21.7284 25.3959 21.82 25.5329 21.9521 25.6212C22.0841 25.7094 22.2457 25.7418 22.4015 25.7111C24.8424 25.2871 27.3382 25.2871 29.7791 25.7111C29.9349 25.7419 30.0966 25.7096 30.2287 25.6213C30.3608 25.533 30.4525 25.3959 30.4837 25.2401C30.5148 25.0843 30.4829 24.9225 30.3949 24.7903C30.3069 24.658 30.17 24.566 30.0143 24.5345Z" fill="#1D356D"/>
<path d="M22.2838 21.897C24.7637 21.4683 27.2984 21.4643 29.7797 21.8852C29.8569 21.9007 29.9364 21.9008 30.0137 21.8855C30.091 21.8702 30.1645 21.8398 30.2301 21.7961C30.2956 21.7524 30.3519 21.6962 30.3958 21.6307C30.4396 21.5653 30.4701 21.4918 30.4856 21.4146C30.501 21.3373 30.5011 21.2578 30.4858 21.1805C30.4705 21.1032 30.4401 21.0297 30.3964 20.9642C30.3527 20.8986 30.2965 20.8423 30.2311 20.7985C30.1656 20.7546 30.0922 20.7241 30.0149 20.7087C27.4192 20.2468 24.7623 20.2468 22.1666 20.7087C22.0207 20.7379 21.8909 20.8204 21.8023 20.94C21.7138 21.0595 21.6729 21.2078 21.6875 21.3558C21.7021 21.5039 21.7712 21.6413 21.8814 21.7413C21.9916 21.8413 22.135 21.8968 22.2838 21.897Z" fill="#1D356D"/>
<path d="M17.8345 28.3215C15.2388 27.8593 12.5819 27.8593 9.9862 28.3215C9.83018 28.3527 9.69295 28.4446 9.60468 28.577C9.51642 28.7094 9.48436 28.8714 9.51555 29.0274C9.54675 29.1834 9.63865 29.3207 9.77103 29.4089C9.90341 29.4972 10.0654 29.5293 10.2215 29.4981C12.6624 29.0744 15.1581 29.0744 17.599 29.4981C17.755 29.5293 17.9171 29.4973 18.0495 29.409C18.1819 29.3208 18.2738 29.1836 18.305 29.0276C18.3363 28.8715 18.3043 28.7095 18.216 28.5771C18.1278 28.4447 17.9906 28.3527 17.8345 28.3215Z" fill="#1D356D"/>
<path d="M17.8346 24.5345C15.239 24.0717 12.5819 24.0717 9.9863 24.5345C9.83067 24.5662 9.69394 24.6582 9.60607 24.7905C9.5182 24.9228 9.48636 25.0845 9.51754 25.2402C9.54871 25.3959 9.64035 25.533 9.77238 25.6212C9.9044 25.7095 10.066 25.7418 10.2218 25.7111C12.6625 25.2856 15.1584 25.2856 17.5991 25.7111C17.6764 25.7268 17.7561 25.7271 17.8336 25.712C17.9111 25.6969 17.9848 25.6666 18.0506 25.6229C18.1163 25.5792 18.1728 25.523 18.2168 25.4575C18.2608 25.3919 18.2914 25.3183 18.3069 25.2409C18.3224 25.1635 18.3225 25.0838 18.3071 25.0064C18.2917 24.929 18.2612 24.8553 18.2174 24.7897C18.1735 24.7241 18.1171 24.6678 18.0514 24.624C17.9858 24.5802 17.9121 24.5498 17.8346 24.5345Z" fill="#1D356D"/>
<path d="M17.8345 20.7087C15.2389 20.2463 12.5819 20.2463 9.9862 20.7087C9.83018 20.7399 9.69295 20.8318 9.60468 20.9642C9.51642 21.0966 9.48436 21.2586 9.51555 21.4146C9.54675 21.5706 9.63865 21.7079 9.77103 21.7961C9.90341 21.8844 10.0654 21.9165 10.2215 21.8853C12.6624 21.4618 15.158 21.4618 17.599 21.8853C17.755 21.9165 17.9171 21.8845 18.0495 21.7962C18.1819 21.708 18.2738 21.5708 18.305 21.4148C18.3363 21.2587 18.3043 21.0967 18.216 20.9643C18.1278 20.8319 17.9906 20.7399 17.8345 20.7087Z" fill="#1D356D"/>
<path d="M20.6004 15.4253V34.8533C20.4444 34.8833 20.2884 34.9193 20.1444 34.9553H20.1384C20.1144 34.9613 20.0844 34.9613 20.0604 34.9673C20.0424 34.9673 20.0244 34.9733 20.0004 34.9733C19.9764 34.9733 19.9584 34.9673 19.9404 34.9673C19.9164 34.9613 19.8864 34.9613 19.8624 34.9553H19.8564C19.7124 34.9193 19.5564 34.8833 19.4004 34.8533V15.4253C19.5984 15.4613 19.7964 15.4973 20.0004 15.5393C20.2044 15.4973 20.4024 15.4613 20.6004 15.4253Z" fill="#ECEEF1"/>
<path d="M25.9899 4.70146C24.7941 3.65574 23.331 2.94793 21.7567 2.65361C20.1823 2.35929 18.556 2.48952 17.0514 3.03039C15.5467 3.57126 14.2202 4.50246 13.2136 5.72454C12.2069 6.94662 11.5579 8.41369 11.3359 9.96906C11.0525 11.9096 11.452 13.8869 12.4687 15.5752C13.4854 17.2635 15.0586 18.5621 16.9291 19.2571L19.0779 22.7631C19.1818 22.9349 19.3298 23.0771 19.5071 23.1755C19.6844 23.274 19.885 23.3252 20.0888 23.3242H20.1C20.3058 23.3234 20.5077 23.2693 20.6854 23.1676C20.8631 23.0658 21.0103 22.9198 21.112 22.7445L23.124 19.3144C24.5622 18.8024 25.8403 17.9334 26.8332 16.7924C27.8261 15.6514 28.4999 14.2775 28.7887 12.8049C29.0775 11.3323 28.9714 9.81153 28.4809 8.39116C27.9903 6.97078 27.132 5.69946 25.9899 4.70146Z" fill="#FFA100"/>
<path d="M21.2204 9.30294C21.5036 9.00975 21.6613 8.61759 21.6598 8.20992C21.6582 7.80225 21.4977 7.41127 21.2123 7.1202C20.9168 6.82908 20.5188 6.66556 20.104 6.6648C19.6892 6.66403 19.2906 6.82609 18.9941 7.11612C18.7024 7.40554 18.5377 7.79896 18.5361 8.20983C18.5346 8.62071 18.6963 9.01538 18.9856 9.30703C19.1293 9.45939 19.3026 9.5807 19.4949 9.6635C19.6873 9.74629 19.8945 9.78881 20.1039 9.78842C20.3133 9.78804 20.5204 9.74477 20.7124 9.66127C20.9044 9.57777 21.0773 9.45583 21.2204 9.30294Z" fill="#F5F6F7"/>
<path d="M21.0688 11.0298C20.2842 10.5848 18.4731 10.895 18.5378 11.8305V16.0803C18.5456 17.4193 21.6394 17.399 21.6598 16.0803V11.8305C21.6571 11.6592 21.5998 11.4923 21.4948 11.3502C21.3899 11.208 21.2419 11.0967 21.0688 11.0298Z" fill="#F5F6F7"/>
</svg>
