<svg width="40" height="41" viewBox="0 0 40 41" fill="none" xmlns="http://www.w3.org/2000/svg">
<path fill-rule="evenodd" clip-rule="evenodd" d="M22.0173 3.29703L22.9324 4.1491C23.6742 4.83915 24.626 5.09567 25.6131 4.8699L26.8522 4.58713C28.371 4.24061 29.8914 5.12117 30.3482 6.61004L30.715 7.80563C31.012 8.77396 31.708 9.47152 32.6764 9.77079L33.8907 10.1458C35.3788 10.6056 36.2556 12.1275 35.9069 13.6456L35.6263 14.8644C35.3991 15.8515 35.6534 16.8041 36.3427 17.5466L37.2067 18.479C38.2658 19.6213 38.2643 21.3779 37.203 22.518L36.3509 23.4331C35.6609 24.1749 35.4043 25.1267 35.6301 26.1138L35.9129 27.3529C36.2594 28.8718 35.3788 30.3921 33.89 30.8489L32.6944 31.2157C31.726 31.5127 31.0285 32.2088 30.7292 33.1771L30.3542 34.3915C29.8944 35.8796 28.3725 36.7564 26.8544 36.4076L25.6356 36.1271C24.6485 35.8998 23.6959 36.1541 22.9534 36.8434L22.021 37.7075C20.8787 38.7666 19.1221 38.7651 17.982 37.7037L17.0669 36.8517C16.3251 36.1616 15.3733 35.9051 14.3862 36.1308L13.1471 36.4136C11.6282 36.7601 10.1079 35.8796 9.65107 34.3907L9.28429 33.1951C8.98727 32.2268 8.29121 31.5292 7.32289 31.23L6.10854 30.8549C4.62042 30.3952 3.74361 28.8733 4.09238 27.3552L4.37291 26.1363C4.60017 25.1492 4.3459 24.1967 3.65735 23.4541L2.79328 22.5218C1.7342 21.3794 1.7357 19.6228 2.79703 18.4827L3.6491 17.5676C4.33915 16.8258 4.59567 15.874 4.3699 14.8869L4.08713 13.6478C3.74061 12.129 4.62117 10.6086 6.11004 10.1518L7.30563 9.78504C8.27396 9.48802 8.97151 8.79196 9.27079 7.82364L9.64582 6.60929C10.1056 5.12117 11.6275 4.24436 13.1456 4.59313L14.3644 4.87366C15.3515 5.10092 16.3041 4.84665 17.0466 4.15735L17.979 3.29328C19.1206 2.2342 20.8772 2.2357 22.0173 3.29703Z" fill="#FFC431"/>
<path d="M28.8755 29.3808C33.7797 24.4767 33.7797 16.5255 28.8755 11.6214C23.9714 6.71723 16.0202 6.71723 11.1161 11.6214C6.21192 16.5255 6.21192 24.4767 11.1161 29.3808C16.0202 34.285 23.9714 34.285 28.8755 29.3808Z" fill="#3D6BED"/>
<path fill-rule="evenodd" clip-rule="evenodd" d="M21.9863 18.0133H25.1065C25.5978 18.0133 26 18.4345 26 18.9491C26 19.3238 25.7869 19.6488 25.4814 19.7981C25.4039 19.8356 25.3527 19.9022 25.334 19.9894C25.3153 20.0767 25.334 20.16 25.3879 20.2288C25.5145 20.3905 25.5909 20.5969 25.5909 20.8206C25.5909 21.2155 25.3543 21.5556 25.0221 21.692C24.9414 21.725 24.8853 21.7899 24.8624 21.8777C24.8394 21.9656 24.8554 22.0511 24.9083 22.1227C25.0247 22.2805 25.0936 22.4785 25.0936 22.6921C25.0936 23.077 24.8688 23.4092 24.5499 23.553C24.4709 23.5887 24.4175 23.6542 24.3961 23.7414C24.3753 23.8287 24.3924 23.9132 24.4458 23.9836C24.567 24.1436 24.6397 24.345 24.6397 24.5642C24.6397 25.0788 24.2375 25.5 23.7461 25.5H19.5786C18.7507 25.5 17.8385 25.4989 17.3845 24.5866L16.0311 21.8677C15.9926 21.7905 15.99 21.7077 16.0225 21.6283L17.1431 18.8959C17.1452 18.8909 17.1473 18.8864 17.1495 18.8808C17.6259 17.8841 18.1189 17.5999 18.6311 17.0876C19.115 16.6032 19.6571 15.4292 19.6843 14.6511C19.7094 13.9374 19.9695 13.6001 20.2916 13.5201C20.9133 13.3663 21.4164 14.1214 21.4992 14.8251C21.6396 16.0237 20.893 16.3179 21.5013 17.6894C21.5916 17.8919 21.7737 18.0133 21.9863 18.0133Z" fill="white"/>
<path fill-rule="evenodd" clip-rule="evenodd" d="M17 18.469V24.531C17 25.065 16.5864 25.5 16.0799 25.5H14.9201C14.413 25.5 14 25.0644 14 24.531V18.469C14 17.935 14.4136 17.5 14.9201 17.5H16.0799C16.587 17.5 17 17.935 17 18.469Z" fill="#1D356D"/>
</svg>
