<svg width="40" height="41" viewBox="0 0 40 41" fill="none" xmlns="http://www.w3.org/2000/svg">
<path d="M37.2551 6.82349V16.6955C37.2551 18.5308 35.7674 20.019 33.9317 20.019H32.1146V24.207C32.1146 25.0326 31.129 25.4596 30.5264 24.8952L25.3236 20.019H18.2297C16.3944 20.019 14.9062 18.5312 14.9062 16.6955V6.82349C14.9062 4.98814 16.394 3.5 18.2297 3.5H33.9317C35.7674 3.5 37.2551 4.98814 37.2551 6.82349Z" fill="#3D6BED"/>
<path d="M22 13.5H27" stroke="white" stroke-width="1.5" stroke-linecap="round"/>
<path d="M22 10.5H30" stroke="white" stroke-width="1.5" stroke-linecap="round"/>
<path d="M25.3485 20.036V29.0333C25.3485 30.8734 23.8674 32.3541 22.0266 32.3541H14.9374L9.73106 37.2455C9.12537 37.8064 8.13821 37.3798 8.13821 36.5503V32.3541H6.32077C4.48113 32.3541 3 30.8734 3 29.0333V19.1613C3 17.3213 4.48113 15.8406 6.32077 15.8406H14.9144V16.6931C14.9144 18.5331 16.3956 20.0138 18.2352 20.0138H25.3255L25.3485 20.036Z" fill="#FFC431"/>
<path d="M10.1355 25.1634C9.97825 25.1634 9.84357 25.1195 9.70928 25.0735C9.57459 25.0058 9.43991 24.9159 9.34999 24.8283C9.23788 24.7142 9.14835 24.6025 9.10359 24.469C9.03625 24.3332 9.01367 24.1775 9.01367 24.0198C9.01367 23.7282 9.12578 23.4371 9.34999 23.2331C9.75443 22.808 10.4944 22.808 10.9206 23.2331C11.0328 23.3472 11.1227 23.4589 11.1678 23.5924C11.2352 23.7282 11.2577 23.8839 11.2577 24.0198C11.2577 24.1775 11.2352 24.3332 11.1678 24.469C11.1231 24.6025 11.0331 24.7142 10.9206 24.8283C10.719 25.0295 10.4271 25.1634 10.1355 25.1634Z" fill="#EF5E3B"/>
<path d="M14.6228 25.1634C14.4656 25.1634 14.3309 25.1194 14.1966 25.0735C14.0619 25.0058 13.9272 24.9158 13.8373 24.8283C13.6131 24.6247 13.501 24.3331 13.501 24.0198C13.501 23.8839 13.5236 23.7282 13.5909 23.5924C13.6357 23.4589 13.7252 23.3471 13.8373 23.2331C13.9272 23.1214 14.0619 23.0556 14.1966 22.9878C14.6002 22.8302 15.1164 22.9201 15.4076 23.2331C15.6322 23.4367 15.7443 23.7282 15.7443 24.0198C15.7443 24.3331 15.6322 24.6247 15.4076 24.8283C15.3184 24.9158 15.1834 25.0058 15.0487 25.0735C14.9144 25.1194 14.7801 25.1634 14.6228 25.1634Z" fill="#EF5E3B"/>
<path d="M19.1111 25.1634C18.8192 25.1634 18.5276 25.0299 18.3256 24.8283C18.1014 24.6247 17.9893 24.3332 17.9893 24.0198C17.9893 23.7282 18.1014 23.4371 18.3256 23.2331C18.73 22.808 19.4922 22.808 19.8962 23.2331C20.0083 23.3472 20.0983 23.4589 20.1434 23.5924C20.2108 23.7282 20.2333 23.8839 20.2333 24.0198C20.2333 24.3332 20.1212 24.6247 19.8966 24.8283C19.6946 25.0295 19.4027 25.1634 19.1111 25.1634Z" fill="#EF5E3B"/>
</svg>
