<svg width="40" height="41" viewBox="0 0 40 41" fill="none" xmlns="http://www.w3.org/2000/svg">
<path d="M17.6686 4.5H6.78676C4.64038 4.5 2.90039 6.23998 2.90039 8.38636V19.2682C2.90039 21.4146 4.64038 23.1545 6.78676 23.1545H17.6686C19.815 23.1545 21.5549 21.4146 21.5549 19.2682V8.38636C21.5549 6.23998 19.815 4.5 17.6686 4.5Z" fill="#3D6BED"/>
<path d="M20.0004 20.8227H7.56403C6.27609 20.8227 5.23221 19.7788 5.23221 18.4909V6.0545C5.23221 5.59202 5.32704 5.1552 5.47472 4.74402C3.97847 5.285 2.90039 6.70586 2.90039 8.38632V19.2681C2.90039 21.4111 4.64381 23.1545 6.78676 23.1545H17.6686C19.349 23.1545 20.7699 22.0764 21.3109 20.5802C20.8997 20.7286 20.4621 20.8227 20.0004 20.8227Z" fill="#2B5CE5"/>
<path d="M16.8218 17.7805L12.9354 9.23051C12.8095 8.95302 12.5328 8.77502 12.2281 8.77502C11.9234 8.77502 11.6467 8.95302 11.5208 9.23051L7.63443 17.7805C7.45644 18.1707 7.62977 18.6316 8.02074 18.8096C8.40938 18.9876 8.87185 18.8143 9.04985 18.4233L10.4326 15.3811H14.0252L15.4079 18.4233C15.5377 18.7101 15.8207 18.8796 16.116 18.8788C16.2241 18.8788 16.3329 18.8563 16.437 18.8088C16.828 18.6308 17.0006 18.1707 16.8234 17.7797L16.8218 17.7805ZM11.1384 13.8273L12.2281 11.431L13.3179 13.8273H11.1392H11.1384Z" fill="white"/>
<path d="M33.2145 16.9363H22.3327C20.1863 16.9363 18.4463 18.6763 18.4463 20.8226V31.7045C18.4463 33.8508 20.1863 35.5908 22.3327 35.5908H33.2145C35.3609 35.5908 37.1008 33.8508 37.1008 31.7045V20.8226C37.1008 18.6763 35.3609 16.9363 33.2145 16.9363Z" fill="#FFC431"/>
<path d="M35.5463 33.259H23.1099C21.822 33.259 20.7781 32.2151 20.7781 30.9271V18.4908C20.7781 18.0283 20.8729 17.5915 21.0206 17.1803C19.5244 17.7213 18.4463 19.1421 18.4463 20.8226V31.7044C18.4463 33.8474 20.1897 35.5908 22.3327 35.5908H33.2145C34.8949 35.5908 36.3158 34.5127 36.8568 33.0165C36.4456 33.1649 36.008 33.259 35.5463 33.259Z" fill="#FCB80E"/>
<path d="M31.2249 24.709H31.6594C32.0884 24.709 32.4366 24.3608 32.4366 23.9317C32.4366 23.5027 32.0884 23.1545 31.6594 23.1545H28.5503V21.5999C28.5503 21.1709 28.2021 20.8226 27.773 20.8226C27.344 20.8226 26.9957 21.1709 26.9957 21.5999V23.1545H23.8866C23.4576 23.1545 23.1094 23.5027 23.1094 23.9317C23.1094 24.3608 23.4576 24.709 23.8866 24.709H29.654C29.4597 26.0576 28.7718 27.2483 27.7683 28.0886C27.18 27.5942 26.691 26.9755 26.3514 26.2597C26.1679 25.8718 25.7039 25.707 25.3161 25.8905C24.9282 26.0739 24.7634 26.5379 24.9468 26.9258C25.3091 27.6891 25.8135 28.3544 26.4042 28.9257C25.7358 29.2117 24.9981 29.3719 24.2193 29.3719C23.7903 29.3719 23.47 29.7201 23.47 30.1491C23.47 30.5782 23.8455 30.9264 24.2753 30.9264C25.5562 30.9264 26.7548 30.5743 27.7886 29.9704C28.8425 30.5759 30.0528 30.9264 31.3267 30.9264C31.7558 30.9264 32.076 30.5782 32.076 30.1491C32.076 29.7201 31.7006 29.3719 31.2707 29.3719C30.5323 29.3719 29.8165 29.2125 29.1566 28.9319C30.2836 27.8313 31.0414 26.3568 31.2249 24.709Z" fill="white"/>
<path d="M30.8824 8.38628H27.3179L27.5456 8.15854C27.8495 7.85463 27.8495 7.36339 27.5456 7.05948C27.2417 6.75556 26.7505 6.75556 26.4465 7.05948L24.892 8.61402C24.5881 8.91794 24.5881 9.40917 24.892 9.71309L26.4465 11.2676C26.5981 11.4192 26.7971 11.4954 26.9961 11.4954C27.1951 11.4954 27.394 11.4192 27.5456 11.2676C27.8495 10.9637 27.8495 10.4725 27.5456 10.1686L27.3179 9.94083H30.8824C31.3107 9.94083 31.6597 10.2898 31.6597 10.7181V13.0499C31.6597 13.479 32.0079 13.8272 32.437 13.8272C32.866 13.8272 33.2143 13.479 33.2143 13.0499V10.7181C33.2143 9.43249 32.1681 8.38628 30.8824 8.38628Z" fill="#D8DBE1"/>
<path d="M13.5548 28.8232C13.2509 28.5193 12.7597 28.5193 12.4558 28.8232C12.1518 29.1271 12.1518 29.6184 12.4558 29.9223L12.6835 30.15H9.11893C8.69065 30.15 8.34166 29.801 8.34166 29.3728V27.0409C8.34166 26.6119 7.99344 26.2637 7.56438 26.2637C7.13533 26.2637 6.78711 26.6119 6.78711 27.0409V29.3728C6.78711 30.6584 7.83332 31.7046 9.11893 31.7046H12.6835L12.4558 31.9323C12.1518 32.2362 12.1518 32.7275 12.4558 33.0314C12.6073 33.183 12.8063 33.2591 13.0053 33.2591C13.2043 33.2591 13.4033 33.183 13.5548 33.0314L15.1094 31.4768C15.4133 31.1729 15.4133 30.6817 15.1094 30.3778L13.5548 28.8232Z" fill="#D8DBE1"/>
</svg>
