<svg width="20" height="20" viewBox="0 0 20 20" fill="none" xmlns="http://www.w3.org/2000/svg">
<path d="M6.66683 6.66671V4.66671C6.66683 4.2 6.66683 3.96664 6.75766 3.78838C6.83755 3.63158 6.96504 3.5041 7.12184 3.4242C7.3001 3.33337 7.53345 3.33337 8.00016 3.33337H15.3335C15.8002 3.33337 16.0336 3.33337 16.2118 3.4242C16.3686 3.5041 16.4961 3.63158 16.576 3.78838C16.6668 3.96664 16.6668 4.2 16.6668 4.66671V12C16.6668 12.4668 16.6668 12.7001 16.576 12.8784C16.4961 13.0352 16.3686 13.1627 16.2118 13.2425C16.0336 13.3334 15.8002 13.3334 15.3335 13.3334H13.3335M13.3335 8.00004V15.3334C13.3335 15.8001 13.3335 16.0334 13.2427 16.2117C13.1628 16.3685 13.0353 16.496 12.8785 16.5759C12.7002 16.6667 12.4669 16.6667 12.0002 16.6667H4.66683C4.20012 16.6667 3.96676 16.6667 3.7885 16.5759C3.6317 16.496 3.50422 16.3685 3.42432 16.2117C3.3335 16.0334 3.3335 15.8001 3.3335 15.3334V8.00004C3.3335 7.53333 3.3335 7.29998 3.42432 7.12172C3.50422 6.96491 3.6317 6.83743 3.7885 6.75754C3.96676 6.66671 4.20012 6.66671 4.66683 6.66671H12.0002C12.4669 6.66671 12.7002 6.66671 12.8785 6.75754C13.0353 6.83743 13.1628 6.96491 13.2427 7.12172C13.3335 7.29998 13.3335 7.53333 13.3335 8.00004Z" stroke="#555555" stroke-width="1.7" stroke-linecap="round" stroke-linejoin="round"/>
</svg>
