<svg width="28" height="28" viewBox="0 0 28 28" fill="none" xmlns="http://www.w3.org/2000/svg">
<g clip-path="url(#clip0_22_7708)">
<path d="M14 27.5625C21.4904 27.5625 27.5625 21.4904 27.5625 14C27.5625 6.50964 21.4904 0.4375 14 0.4375C6.50964 0.4375 0.4375 6.50964 0.4375 14C0.4375 21.4904 6.50964 27.5625 14 27.5625Z" fill="#DAE4FF"/>
<path d="M23.6512 22.7032C22.5295 21.2014 21.073 19.982 19.3974 19.1418C17.7219 18.3016 15.8734 17.8639 13.999 17.8633C12.1246 17.8627 10.2759 18.2993 8.59976 19.1384C6.92366 19.9776 5.46639 21.1961 4.34375 22.6971C5.46068 24.2058 6.91557 25.4317 8.59177 26.2766C10.268 27.1216 12.1188 27.562 13.996 27.5626C15.8731 27.5632 17.7242 27.1239 19.4009 26.28C21.0777 25.4361 22.5333 24.2111 23.6512 22.7032Z" fill="#4E93BE"/>
<path d="M13.9994 16.3113C16.5707 16.3113 18.6551 14.2269 18.6551 11.6557C18.6551 9.08441 16.5707 7 13.9994 7C11.4282 7 9.34375 9.08441 9.34375 11.6557C9.34375 14.2269 11.4282 16.3113 13.9994 16.3113Z" fill="#4E93BE"/>
</g>
<defs>
<clipPath id="clip0_22_7708">
<rect width="28" height="28" fill="white"/>
</clipPath>
</defs>
</svg>
