<svg width="20" height="20" viewBox="0 0 20 20" fill="none" xmlns="http://www.w3.org/2000/svg">
<path d="M2.15247 17.2448C1.61874 17.2448 1.18604 16.8249 1.18604 16.3068V7.43835C1.18604 6.33378 2.08147 5.43835 3.18604 5.43835H6.92755C7.14641 5.43835 7.35923 5.51016 7.53336 5.64275L8.41222 6.31195C8.76048 6.57714 9.18612 6.72075 9.62385 6.72075H13.8696C14.9057 6.72075 15.7457 7.56067 15.7457 8.59677C10.903 12.6488 7.76642 17.2448 2.15247 17.2448Z" fill="#0096F6"/>
<path d="M6.95249 8.59692C6.05506 8.59692 5.26751 9.1947 5.02617 10.0591L3.22686 16.5033C3.10464 16.9411 2.69533 17.245 2.22803 17.245H9.81635L12.1059 12.4197L12.231 8.59692H6.95249Z" fill="#96C8EF"/>
<path d="M11.9849 8.59692L9.57031 17.245H15.5752C16.0425 17.245 16.4518 16.9411 16.574 16.5033L18.073 11.1348C18.4289 9.85979 17.4704 8.59692 16.1466 8.59692H11.9849Z" fill="#69B1E9"/>
<path d="M9.99913 15.7088H6.42334L6.70609 14.7043H10.2819L10.8884 15.2065L9.99913 15.7088Z" fill="#69B1E9"/>
<path d="M13.5749 15.7088H9.99902L10.2795 14.7043H13.8576L13.5749 15.7088Z" fill="#3D9AE2"/>
<path d="M18.5069 4.05437C18.3244 3.82631 17.9936 3.78477 17.7603 3.96061L17.3769 4.24969C17.103 2.55251 15.5863 1.25 13.7621 1.25C11.9249 1.25 10.3996 2.57099 10.1415 4.28576C10.099 4.56834 10.3347 4.80141 10.6204 4.80141C10.9062 4.80141 11.1323 4.56722 11.1915 4.28766C11.437 3.12865 12.4963 2.25441 13.7621 2.25441C14.9773 2.25441 16.002 3.06051 16.2991 4.15066L16.047 3.96062C15.8138 3.78478 15.483 3.82632 15.3005 4.05438C15.1264 4.27186 15.1464 4.58605 15.3466 4.77974L16.2408 5.64484C16.6104 6.00244 17.197 6.00244 17.5666 5.64484L18.4608 4.77976C18.661 4.58606 18.6809 4.27185 18.5069 4.05437Z" fill="#77CA95"/>
</svg>
