<svg width="28" height="28" viewBox="0 0 28 28" fill="none" xmlns="http://www.w3.org/2000/svg">
<g clip-path="url(#clip0_22_7611)">
<rect width="28" height="28" rx="8" fill="#0096F6"/>
<path d="M11.4568 12.6754C13.4047 11.7438 14.9291 10.1629 15.8042 8.18679C15.2396 7.59395 14.5056 7.1705 13.7152 6.91642L13.2917 6.77527C13.2635 6.83173 13.2353 6.91642 13.2353 6.97289C12.5577 8.89256 11.1745 10.4452 9.31124 11.3204C8.01264 11.9414 7.0528 13.0707 6.60111 14.4257L6.45996 14.8492C6.51642 14.8774 6.60111 14.9056 6.65758 14.9056C7.19395 15.1033 7.73033 15.3573 8.23848 15.6679C8.94424 14.3975 10.0735 13.3247 11.4568 12.6754Z" fill="white"/>
<path d="M19.6435 12.7884C18.599 14.3693 17.1593 15.6396 15.3807 16.4865C13.941 17.1641 12.84 18.4345 12.3318 19.9589L12.1907 20.4388C12.7271 20.9187 13.3764 21.2857 14.0821 21.5116L14.5056 21.6527C14.5338 21.5963 14.562 21.5116 14.562 21.4551C15.2396 19.5354 16.6229 17.9828 18.4861 17.1076C19.7847 16.4866 20.7728 15.3573 21.1962 14.0023L21.3374 13.5788C20.7445 13.4094 20.1799 13.1271 19.6435 12.7884Z" fill="white"/>
<path d="M11.0616 18.9708C11.7673 17.277 13.0659 15.8937 14.7315 15.1033C16.256 14.3693 17.5264 13.24 18.4015 11.8568C17.7522 11.2357 17.2158 10.5299 16.8206 9.683C15.7761 11.6027 14.1387 13.1554 12.1343 14.1152C10.9769 14.6516 10.0453 15.5832 9.48068 16.7124C10.1017 17.3052 10.6099 18.0392 11.0051 18.8579C11.0051 18.8579 11.0334 18.9144 11.0616 18.9708Z" fill="white"/>
</g>
<defs>
<clipPath id="clip0_22_7611">
<rect width="28" height="28" rx="8" fill="white"/>
</clipPath>
</defs>
</svg>
