<svg width="20" height="21" viewBox="0 0 20 21" fill="none" xmlns="http://www.w3.org/2000/svg">
<path d="M14.1667 11.4334H16.5C17.0523 11.4334 17.5 10.9857 17.5 10.4334V4.93343C17.5 4.38115 17.0523 3.93343 16.5 3.93343H14.1667M14.1667 11.4334L14.1667 3.93343M14.1667 11.4334L11.0842 17.6422C10.9449 17.9227 10.6588 18.1001 10.3456 18.1001V18.1001C9.32639 18.1001 8.54764 17.1873 8.70465 16.1767L9.18264 13.1001L4.99162 13.1001C3.482 13.1001 2.3193 11.7634 2.52327 10.2623L3.08946 6.09565C3.25777 4.85693 4.31203 3.93343 5.5578 3.93343L14.1667 3.93343" stroke="#949AA6" stroke-width="1.7" stroke-linejoin="round"/>
</svg>
