<svg width="20" height="20" viewBox="0 0 20 20" fill="none" xmlns="http://www.w3.org/2000/svg">
<path d="M3.33301 4.70572C2.86357 4.70572 2.48301 5.08628 2.48301 5.55572C2.48301 6.02516 2.86357 6.40572 3.33301 6.40572V4.70572ZM16.6663 6.40572C17.1358 6.40572 17.5163 6.02516 17.5163 5.55572C17.5163 5.08628 17.1358 4.70572 16.6663 4.70572V6.40572ZM9.36819 9.25942C9.36819 8.78998 8.98763 8.40942 8.51819 8.40942C8.04875 8.40942 7.66819 8.78998 7.66819 9.25942H9.36819ZM7.66819 12.9631C7.66819 13.4326 8.04875 13.8131 8.51819 13.8131C8.98763 13.8131 9.36819 13.4326 9.36819 12.9631H7.66819ZM12.3312 9.25942C12.3312 8.78998 11.9506 8.40942 11.4812 8.40942C11.0117 8.40942 10.6312 8.78998 10.6312 9.25942H12.3312ZM10.6312 12.9631C10.6312 13.4326 11.0117 13.8131 11.4812 13.8131C11.9506 13.8131 12.3312 13.4326 12.3312 12.9631H10.6312ZM12.0461 5.76759C12.1631 6.22221 12.6266 6.4959 13.0812 6.37889C13.5358 6.26188 13.8095 5.79847 13.6925 5.34385L12.0461 5.76759ZM3.96637 5.61226L4.64488 15.7899L6.34112 15.6768L5.66261 5.49918L3.96637 5.61226ZM6.49078 17.5168H13.5086V15.8168H6.49078V17.5168ZM15.3545 15.7899L16.033 5.61226L14.3367 5.49918L13.6582 15.6768L15.3545 15.7899ZM15.1849 4.70572H4.81449V6.40572H15.1849V4.70572ZM3.33301 6.40572H4.81449V4.70572H3.33301V6.40572ZM15.1849 6.40572H16.6663V4.70572H15.1849V6.40572ZM7.66819 9.25942V12.9631H9.36819V9.25942H7.66819ZM10.6312 9.25942V12.9631H12.3312V9.25942H10.6312ZM9.99969 4.1835C10.9831 4.1835 11.8115 4.85607 12.0461 5.76759L13.6925 5.34385C13.2692 3.69947 11.7775 2.4835 9.99969 2.4835V4.1835ZM7.95324 5.76759C8.18785 4.85607 9.0163 4.1835 9.99969 4.1835V2.4835C8.22184 2.4835 6.73013 3.69947 6.3069 5.34385L7.95324 5.76759ZM13.5086 17.5168C14.4825 17.5168 15.2897 16.7617 15.3545 15.7899L13.6582 15.6768C13.653 15.7556 13.5875 15.8168 13.5086 15.8168V17.5168ZM4.64488 15.7899C4.70967 16.7617 5.51682 17.5168 6.49078 17.5168V15.8168C6.41181 15.8168 6.34637 15.7556 6.34112 15.6768L4.64488 15.7899Z" fill="#949AA6"/>
</svg>
